<?xml version="1.0" encoding="UTF-8" standalone="no"?>
<svg
   xmlns:dc="http://purl.org/dc/elements/1.1/"
   xmlns:cc="http://creativecommons.org/ns#"
   xmlns:rdf="http://www.w3.org/1999/02/22-rdf-syntax-ns#"
   xmlns:svg="http://www.w3.org/2000/svg"
   xmlns="http://www.w3.org/2000/svg"
   xmlns:sodipodi="http://sodipodi.sourceforge.net/DTD/sodipodi-0.dtd"
   xmlns:inkscape="http://www.inkscape.org/namespaces/inkscape"
   viewBox="0 0 244.68915 75.961018"
   height="2.0098019cm"
   width="6.4740672cm"
   xml:space="preserve"
   id="svg2"
   version="1.1"
   sodipodi:docname="aki_logo_2_quer_farbig_neg_with_margin.svg"
   inkscape:version="0.92.4 5da689c313, 2019-01-14"><sodipodi:namedview
     pagecolor="#ffffff"
     bordercolor="#666666"
     borderopacity="1"
     objecttolerance="10"
     gridtolerance="10"
     guidetolerance="10"
     inkscape:pageopacity="0"
     inkscape:pageshadow="2"
     inkscape:window-width="958"
     inkscape:window-height="1059"
     id="namedview30"
     showgrid="false"
     inkscape:zoom="1.8933556"
     inkscape:cx="90.901827"
     inkscape:cy="16.906983"
     inkscape:window-x="960"
     inkscape:window-y="0"
     inkscape:window-maximized="0"
     inkscape:current-layer="svg2"
     units="cm"
     fit-margin-top="0.4"
     fit-margin-bottom="0.4"
     fit-margin-right="0.4"
     fit-margin-left="0.4" /><metadata
     id="metadata8"><rdf:RDF><cc:Work
         rdf:about=""><dc:format>image/svg+xml</dc:format><dc:type
           rdf:resource="http://purl.org/dc/dcmitype/StillImage" /><dc:title></dc:title></cc:Work></rdf:RDF></metadata><defs
     id="defs6"><clipPath
       id="clipPath18"><path
         id="path16"
         d="M 0,34.293 H 160.84 V 0 H 0 Z"
         inkscape:connector-curvature="0" /></clipPath></defs><g
     id="g20"
     transform="matrix(1.3333333,0,0,-1.3333333,76.347975,44.801043)"><path
       inkscape:connector-curvature="0"
       d="m 0,0 c -1.46,0 -2.434,0.75 -2.434,1.95 0,1.14 0.915,1.874 2.523,1.994 l 3.333,0.21 V 2.985 C 3.422,1.245 1.874,0 0,0 m -1.416,-3.165 c 1.977,0 3.939,1.005 4.824,2.715 h 0.088 v -2.46 h 4.16 V 8.144 c 0,3.239 -2.64,5.369 -6.697,5.369 -4.19,0 -6.801,-2.145 -6.963,-5.264 h 3.939 c 0.206,1.185 1.224,1.995 2.832,1.995 1.623,0 2.655,-0.87 2.655,-2.37 V 6.809 L -0.561,6.569 C -4.499,6.329 -6.712,4.634 -6.712,1.71 c 0,-2.895 2.286,-4.875 5.296,-4.875 M 13.238,6.719 H 13.179 V 18.732 H 8.871 V -2.91 h 4.308 V 2.4 L 14.3,3.629 18.829,-2.91 h 4.957 l -6.329,9.179 6.034,6.899 H 18.608 Z M 23.95,-2.91 h 4.308 V 13.168 H 23.95 Z m 2.139,18.253 c 1.254,0 2.243,1.02 2.243,2.25 0,1.244 -0.989,2.249 -2.243,2.249 -1.253,0 -2.242,-1.005 -2.242,-2.249 0,-1.23 0.989,-2.25 2.242,-2.25"
       style="fill:#ffffff;fill-opacity:1;fill-rule:nonzero;stroke:none"
       id="path22" /></g><g
     id="g24"
     transform="matrix(1.3333333,0,0,-1.3333333,19.761977,38.205977)"><path
       inkscape:connector-curvature="0"
       d="m 0,0 c -0.229,-0.841 -0.353,-1.725 -0.353,-2.638 0,-5.548 4.513,-10.062 10.062,-10.062 5.548,0 10.062,4.514 10.062,10.062 0,0.916 -0.126,1.803 -0.356,2.647 0.056,-3.414 -1.689,-6.76 -4.85,-8.585 C 9.927,-11.254 3.975,-9.659 1.297,-5.021 0.384,-3.439 -0.032,-1.705 0,0"
       style="fill:#e48738;fill-opacity:1;fill-rule:nonzero;stroke:none"
       id="path26" /></g><g
     id="g28"
     transform="matrix(1.3333333,0,0,-1.3333333,32.90971,35.24371)"><path
       inkscape:connector-curvature="0"
       d="M 0,0 C 1.224,2.12 3.84,2.944 6.033,1.988 5.638,2.498 5.141,2.942 4.549,3.284 2.105,4.695 -1.032,3.854 -2.443,1.41 -3.854,-1.034 -3.014,-4.17 -0.57,-5.581 0.023,-5.923 0.655,-6.132 1.294,-6.218 -0.63,-4.797 -1.224,-2.12 0,0"
       style="fill:#f2ad35;fill-opacity:1;fill-rule:nonzero;stroke:none"
       id="path30" /></g><g
     id="g32"
     transform="matrix(1.3333333,0,0,-1.3333333,35.200109,39.663577)"><path
       inkscape:connector-curvature="0"
       d="M 0,0 C 0.433,0.901 1.352,1.526 2.416,1.526 3.477,1.526 4.394,0.905 4.828,0.009 5.274,1.175 4.822,2.528 3.707,3.172 2.471,3.885 0.885,3.46 0.171,2.224 -0.235,1.521 -0.271,0.705 0,0"
       style="fill:#f8bf33;fill-opacity:1;fill-rule:nonzero;stroke:none"
       id="path34" /></g><g
     id="g36"
     transform="matrix(1.3333333,0,0,-1.3333333,48.953442,41.72291)"><path
       inkscape:connector-curvature="0"
       d="m 0,0 c 0,-6.719 -5.466,-12.185 -12.185,-12.185 -2.408,0 -4.653,0.705 -6.545,1.915 0.716,-0.688 1.523,-1.303 2.421,-1.822 5.985,-3.455 13.666,-1.397 17.121,4.588 3.456,5.985 1.398,13.666 -4.587,17.121 -0.9,0.52 -1.838,0.912 -2.794,1.188 C -2.67,8.771 0,4.694 0,0"
       style="fill:#de7239;fill-opacity:1;fill-rule:nonzero;stroke:none"
       id="path38" /></g><g
     id="g40"
     transform="matrix(1.3333333,0,0,-1.3333333,55.748376,31.71891)"><path
       inkscape:connector-curvature="0"
       d="m 0,0 c -4.137,7.166 -13.333,9.63 -20.498,5.492 -0.997,-0.575 -1.898,-1.251 -2.708,-2.003 4.486,2.951 10.437,3.327 15.396,0.464 6.999,-4.041 9.406,-13.023 5.365,-20.022 -1.491,-2.581 -3.654,-4.535 -6.141,-5.774 1.057,0.325 2.096,0.769 3.094,1.345 C 1.673,-16.361 4.137,-7.166 0,0"
       style="fill:#d65c3a;fill-opacity:1;fill-rule:nonzero;stroke:none"
       id="path42" /></g><g
     id="g44"
     transform="matrix(1.3333333,0,0,-1.3333333,23.942377,43.484643)"><path
       inkscape:connector-curvature="0"
       d="m 0,0 c 2.093,-3.624 6.744,-4.871 10.368,-2.778 0.691,0.399 1.295,0.891 1.806,1.451 -2.142,-1.161 -4.82,-1.217 -7.08,0.088 C 1.637,0.757 0.448,5.194 2.444,8.652 3.07,9.736 3.935,10.596 4.934,11.206 4.195,11.043 3.468,10.766 2.778,10.368 -0.846,8.276 -2.093,3.625 0,0"
       style="fill:#eb9937;fill-opacity:1;fill-rule:nonzero;stroke:none"
       id="path46" /></g><g
     id="g48"
     transform="matrix(1.3333333,0,0,-1.3333333,15.11811,38.42211)"><path
       inkscape:connector-curvature="0"
       d="m 0,0 c 0,-1.278 0.142,-2.523 0.403,-3.723 -0.455,6.34 2.645,12.695 8.51,16.082 8.18,4.722 18.676,1.91 23.398,-6.27 1.779,-3.081 2.488,-6.491 2.245,-9.797 0.259,1.196 0.399,2.436 0.399,3.708 0,9.637 -7.84,17.478 -17.477,17.478 C 7.84,17.478 0,9.637 0,0"
       style="fill:#d24a38;fill-opacity:1;fill-rule:nonzero;stroke:none"
       id="path50" /></g><g
     id="g52"
     transform="matrix(1.3333333,0,0,-1.3333333,126.94304,48.02371)"><path
       inkscape:connector-curvature="0"
       d="M 0,0 V 6.2 H -0.636 V 3.514 H -3.937 V 6.2 H -4.573 V 0 h 0.636 v 2.936 h 3.301 V 0 Z m 3.318,4.832 c -1.272,0 -2,-0.918 -2,-2.205 V 2.132 c 0,-1.291 0.728,-2.209 2,-2.209 1.273,0 1.996,0.918 1.996,2.209 v 0.495 c 0,1.282 -0.727,2.205 -1.996,2.205 m 0,-0.555 c 0.855,0 1.369,-0.631 1.369,-1.686 V 2.164 c 0,-1.05 -0.514,-1.682 -1.369,-1.682 -0.859,0 -1.372,0.632 -1.372,1.682 v 0.427 c 0,1.055 0.518,1.686 1.372,1.686 m 3.06,-2.15 c 0,-1.272 0.704,-2.204 1.931,-2.204 1.105,0 1.66,0.604 1.805,1.35 H 9.491 C 9.4,0.864 9.032,0.495 8.359,0.495 7.532,0.495 7.005,1.127 7.005,2.132 v 0.491 c 0,1.032 0.504,1.636 1.341,1.636 0.6,0 1.009,-0.413 1.113,-0.859 h 0.628 C 10.041,4.096 9.4,4.832 8.305,4.832 7.109,4.832 6.378,3.955 6.378,2.664 Z M 11.296,0 h 0.627 v 2.909 c 0,0.696 0.387,1.346 1.282,1.346 0.755,0 1.236,-0.473 1.236,-1.287 V 0 h 0.623 v 3.059 c 0,1.15 -0.727,1.773 -1.7,1.773 -0.795,0 -1.25,-0.423 -1.423,-0.764 h -0.018 v 2.464 h -0.627 z m 4.964,3.432 c 0,-0.841 0.704,-1.1 1.6,-1.3 0.727,-0.155 1.241,-0.273 1.241,-0.841 0,-0.477 -0.405,-0.832 -1.164,-0.832 -0.732,0 -1.109,0.364 -1.164,0.796 h -0.618 c 0,-0.787 0.673,-1.332 1.737,-1.332 1.059,0 1.831,0.5 1.831,1.436 0,0.937 -0.777,1.15 -1.654,1.323 -0.605,0.127 -1.191,0.259 -1.191,0.814 0,0.531 0.455,0.795 1.059,0.795 0.809,0 1.059,-0.477 1.077,-0.845 h 0.596 c 0,0.713 -0.523,1.386 -1.65,1.386 -0.905,0 -1.7,-0.445 -1.7,-1.4 m 4.441,-1.305 c 0,-1.272 0.704,-2.204 1.932,-2.204 1.104,0 1.659,0.604 1.804,1.35 h -0.622 c -0.091,-0.409 -0.46,-0.778 -1.132,-0.778 -0.828,0 -1.355,0.632 -1.355,1.637 v 0.491 c 0,1.032 0.505,1.636 1.341,1.636 0.6,0 1.009,-0.413 1.114,-0.859 h 0.627 c -0.045,0.696 -0.686,1.432 -1.782,1.432 -1.195,0 -1.927,-0.877 -1.927,-2.168 z M 25.619,0 h 0.627 v 2.909 c 0,0.696 0.387,1.346 1.282,1.346 0.755,0 1.237,-0.473 1.237,-1.287 V 0 h 0.622 v 3.059 c 0,1.15 -0.727,1.773 -1.7,1.773 -0.795,0 -1.25,-0.423 -1.422,-0.764 h -0.019 v 2.464 h -0.627 z m 8.832,4.75 H 33.819 V 1.818 c 0,-0.791 -0.5,-1.318 -1.277,-1.318 -0.686,0 -1.209,0.341 -1.209,1.236 V 4.75 H 30.706 V 1.559 c 0,-1.082 0.71,-1.636 1.677,-1.636 0.786,0 1.246,0.363 1.414,0.754 h 0.027 V 0 h 0.627 z M 35.942,0 h 0.627 v 6.532 h -0.627 z m 3.91,-1.177 c -0.696,0 -1.141,0.377 -1.223,0.813 h -0.65 c 0.1,-0.786 0.732,-1.354 1.868,-1.354 1.082,0 1.959,0.618 1.959,1.777 V 4.75 H 41.202 V 4.032 h -0.019 c -0.213,0.436 -0.759,0.8 -1.422,0.8 -1.114,0 -1.896,-0.791 -1.896,-2.146 V 2.223 c 0,-1.373 0.786,-2.155 1.896,-2.155 0.659,0 1.222,0.368 1.405,0.809 h 0.017 V 0.055 c 0,-0.769 -0.531,-1.232 -1.331,-1.232 m 0,5.454 c 0.804,0 1.331,-0.654 1.331,-1.654 v -0.35 c 0,-1.009 -0.509,-1.65 -1.331,-1.65 -0.851,0 -1.36,0.632 -1.36,1.654 v 0.346 c 0,1.041 0.505,1.654 1.36,1.654 m 5.177,-4.354 c 1.036,0 1.645,0.591 1.809,1.327 H 46.202 C 46.061,0.8 45.684,0.464 45.047,0.464 c -0.841,0 -1.336,0.654 -1.336,1.65 v 0.113 h 3.195 v 0.396 c 0,1.336 -0.709,2.209 -1.913,2.209 -1.219,0 -1.914,-0.877 -1.914,-2.159 V 2.132 c 0,-1.346 0.732,-2.209 1.95,-2.209 m -1.318,2.85 v 0.013 c 0,0.864 0.5,1.501 1.282,1.501 0.772,0 1.281,-0.637 1.281,-1.501 V 2.773 Z M 48.147,0 h 0.628 v 3.036 c 0,0.751 0.468,1.219 1.127,1.219 0.695,0 1.109,-0.432 1.109,-1.205 V 0 h 0.623 v 3.046 c 0,0.677 0.4,1.209 1.141,1.209 0.709,0 1.095,-0.468 1.095,-1.141 V 0 h 0.629 v 3.236 c 0,0.996 -0.611,1.596 -1.592,1.596 -0.805,0 -1.296,-0.409 -1.46,-0.814 H 51.42 c -0.177,0.478 -0.623,0.814 -1.386,0.814 -0.668,0 -1.078,-0.373 -1.228,-0.7 H 48.775 V 4.75 h -0.628 z m 9.532,-0.077 c 1.037,0 1.646,0.591 1.81,1.327 H 58.852 C 58.711,0.8 58.334,0.464 57.698,0.464 c -0.841,0 -1.337,0.654 -1.337,1.65 v 0.113 h 3.196 v 0.396 c 0,1.336 -0.709,2.209 -1.914,2.209 -1.218,0 -1.914,-0.877 -1.914,-2.159 V 2.132 c 0,-1.346 0.732,-2.209 1.95,-2.209 m -1.318,2.85 v 0.013 c 0,0.864 0.5,1.501 1.282,1.501 0.774,0 1.282,-0.637 1.282,-1.501 V 2.773 Z M 60.839,0 h 0.627 v 4.75 h -0.627 z m -0.123,5.923 c 0,-0.245 0.195,-0.441 0.436,-0.441 0.241,0 0.441,0.196 0.441,0.441 0,0.241 -0.2,0.436 -0.441,0.436 -0.241,0 -0.436,-0.195 -0.436,-0.436 M 62.966,0 h 0.627 v 2.909 c 0,0.696 0.391,1.346 1.282,1.346 0.755,0 1.232,-0.473 1.232,-1.287 V 0 h 0.627 v 3.059 c 0,1.15 -0.722,1.773 -1.7,1.773 -0.795,0 -1.245,-0.423 -1.422,-0.764 H 63.593 V 4.75 h -0.627 z m 6.85,4.832 c -1.154,0 -1.891,-0.895 -1.891,-2.191 V 2.114 c 0,-1.3 0.678,-2.187 1.891,-2.187 0.728,0 1.209,0.391 1.441,0.837 h 0.018 V 0 h 0.596 V 6.532 H 71.244 V 4.037 h -0.019 c -0.218,0.409 -0.704,0.795 -1.409,0.795 m 0.05,-0.564 c 0.859,0 1.391,-0.677 1.391,-1.659 V 2.136 c 0,-1.009 -0.513,-1.65 -1.377,-1.65 -0.764,0 -1.327,0.56 -1.327,1.655 v 0.464 c 0,1.122 0.577,1.663 1.313,1.663 m 5.228,-4.345 c 1.036,0 1.645,0.591 1.809,1.327 H 76.267 C 76.126,0.8 75.749,0.464 75.112,0.464 c -0.841,0 -1.336,0.654 -1.336,1.65 v 0.113 h 3.195 v 0.396 c 0,1.336 -0.709,2.209 -1.914,2.209 -1.218,0 -1.913,-0.877 -1.913,-2.159 V 2.132 c 0,-1.346 0.732,-2.209 1.95,-2.209 m -1.318,2.85 v 0.013 c 0,0.864 0.5,1.501 1.281,1.501 0.773,0 1.282,-0.637 1.282,-1.501 V 2.773 Z"
       style="fill:#fefefe;fill-opacity:1;fill-rule:nonzero;stroke:none"
       id="path54" /></g><g
     id="g56"
     transform="matrix(1.3333333,0,0,-1.3333333,126.53677,27.343977)"><path
       inkscape:connector-curvature="0"
       d="M 0,0 H -0.768 L -3.609,-3.109 H -3.632 V 0 h -0.636 v -6.2 h 0.636 v 2.254 l 0.782,0.841 2.164,-3.095 h 0.818 l -2.509,3.536 z M 3.641,-5.564 H 3.659 V -6.2 h 0.609 v 3.318 c 0,0.968 -0.704,1.514 -1.695,1.514 -1.091,0 -1.65,-0.573 -1.709,-1.387 h 0.595 c 0.064,0.509 0.423,0.841 1.091,0.841 0.686,0 1.091,-0.359 1.091,-1.045 V -3.496 H 2.327 c -1.081,-0.004 -1.65,-0.531 -1.65,-1.35 0,-0.868 0.632,-1.432 1.55,-1.432 0.755,0 1.2,0.346 1.414,0.714 M 2.373,-5.737 c -0.559,0 -1.046,0.305 -1.046,0.91 0,0.477 0.305,0.818 1.023,0.818 h 1.291 v -0.605 c 0,-0.663 -0.55,-1.123 -1.268,-1.123 M 5.955,-1.45 H 5.287 v -0.536 h 0.668 v -2.946 c 0,-0.905 0.213,-1.314 1.273,-1.314 0.163,0 0.322,0.018 0.395,0.037 v 0.513 C 7.55,-5.705 7.473,-5.709 7.382,-5.709 c -0.604,0 -0.804,0.15 -0.804,0.732 v 2.991 H 7.582 V -1.45 H 6.578 v 1.186 H 5.955 Z M 8.796,-6.2 h 0.627 v 2.909 c 0,0.695 0.386,1.345 1.282,1.345 0.755,0 1.236,-0.472 1.236,-1.286 V -6.2 h 0.623 v 3.059 c 0,1.15 -0.727,1.773 -1.7,1.773 -0.795,0 -1.25,-0.423 -1.423,-0.764 H 9.423 V 0.332 H 8.796 Z m 6.959,4.832 c -1.273,0 -2,-0.918 -2,-2.205 v -0.495 c 0,-1.291 0.727,-2.21 2,-2.21 1.273,0 1.996,0.919 1.996,2.21 v 0.495 c 0,1.282 -0.728,2.205 -1.996,2.205 m 0,-0.555 c 0.855,0 1.369,-0.632 1.369,-1.686 v -0.428 c 0,-1.05 -0.514,-1.681 -1.369,-1.681 -0.859,0 -1.373,0.631 -1.373,1.681 v 0.428 c 0,1.054 0.519,1.686 1.373,1.686 M 19.046,-6.2 h 0.627 v 6.532 h -0.627 z m 2.16,0 h 0.627 v 4.75 h -0.627 z m -0.123,5.923 c 0,-0.246 0.195,-0.441 0.436,-0.441 0.241,0 0.441,0.195 0.441,0.441 0,0.241 -0.2,0.436 -0.441,0.436 -0.241,0 -0.436,-0.195 -0.436,-0.436 m 2.059,-2.491 c 0,-0.841 0.704,-1.1 1.6,-1.3 0.727,-0.155 1.241,-0.273 1.241,-0.841 0,-0.478 -0.404,-0.832 -1.164,-0.832 -0.732,0 -1.109,0.364 -1.164,0.795 h -0.617 c 0,-0.786 0.672,-1.332 1.736,-1.332 1.059,0 1.832,0.501 1.832,1.437 0,0.936 -0.777,1.15 -1.655,1.323 -0.605,0.127 -1.191,0.259 -1.191,0.813 0,0.532 0.455,0.796 1.059,0.796 0.809,0 1.059,-0.477 1.077,-0.846 h 0.596 c 0,0.714 -0.523,1.387 -1.65,1.387 -0.905,0 -1.7,-0.446 -1.7,-1.4 m 4.441,-1.305 c 0,-1.273 0.705,-2.205 1.932,-2.205 1.104,0 1.659,0.605 1.804,1.351 h -0.622 c -0.091,-0.41 -0.459,-0.778 -1.132,-0.778 -0.828,0 -1.355,0.632 -1.355,1.637 v 0.491 c 0,1.031 0.505,1.636 1.341,1.636 0.6,0 1.009,-0.414 1.115,-0.859 h 0.626 c -0.044,0.695 -0.686,1.432 -1.782,1.432 -1.195,0 -1.927,-0.878 -1.927,-2.168 z M 32.501,-6.2 h 0.628 v 2.909 c 0,0.695 0.386,1.345 1.281,1.345 0.756,0 1.237,-0.472 1.237,-1.286 V -6.2 h 0.623 v 3.059 c 0,1.15 -0.728,1.773 -1.701,1.773 -0.795,0 -1.25,-0.423 -1.422,-0.764 h -0.018 v 2.464 h -0.628 z m 6.91,-0.078 c 1.036,0 1.645,0.591 1.809,1.328 h -0.637 c -0.141,-0.45 -0.518,-0.787 -1.154,-0.787 -0.841,0 -1.337,0.655 -1.337,1.65 v 0.114 h 3.197 v 0.396 c 0,1.336 -0.709,2.209 -1.914,2.209 -1.219,0 -1.914,-0.878 -1.914,-2.159 v -0.541 c 0,-1.346 0.731,-2.21 1.95,-2.21 m -1.319,2.851 v 0.013 c 0,0.864 0.5,1.5 1.283,1.5 0.772,0 1.281,-0.636 1.281,-1.5 v -0.013 z"
       style="fill:#ffffff;fill-opacity:1;fill-rule:nonzero;stroke:none"
       id="path58" /></g></svg>