<?xml version="1.0" encoding="UTF-8"?>
<svg width="6.56cm" height="2.15cm" version="1.1" viewBox="0 0 248 81.4" xmlns="http://www.w3.org/2000/svg" xmlns:cc="http://creativecommons.org/ns#" xmlns:dc="http://purl.org/dc/elements/1.1/" xmlns:rdf="http://www.w3.org/1999/02/22-rdf-syntax-ns#"><metadata><rdf:RDF><cc:Work rdf:about=""><dc:format>image/svg+xml</dc:format><dc:type rdf:resource="http://purl.org/dc/dcmitype/StillImage"/><dc:title/></cc:Work></rdf:RDF></metadata><g transform="matrix(1.33 0 0 -1.33 -218 86.1)"><g fill="#fff"><path d="m327 47c-0.33 0.115-0.708 0.148-1.02 0.148-0.925 0-1.34-0.477-1.34-1.56v-0.692h1.91v-1.63h-1.91v-6.56h-2.09v6.56h-1.43v1.63h1.43v0.659c0 2.22 1.02 3.31 3.26 3.31 0.445 0 0.908-0.0332 1.34-0.132zm-10.6-3.72c-0.939 0-1.86-0.725-1.86-2.41 0-1.68 0.609-2.54 1.83-2.54 1.04 0 1.83 0.84 1.83 2.5 0 1.58-0.559 2.44-1.8 2.44zm-0.214-6.74c-2.32 0-3.82 1.2-3.82 4.12 0 2.55 1.7 4.4 4.18 4.4 2.32 0 3.82-1.28 3.82-4.1 0-2.57-1.73-4.41-4.18-4.41zm-10.1-0.593c-0.974-2.55-1.83-3.33-3.71-3.33-0.362 0-0.807 0.05-1.15 0.132l0.133 1.81c0.378-0.116 0.724-0.182 1.12-0.182 0.693 0 1.15 0.313 1.58 1.53l0.28 0.791-3.01 8.19h2.34l1.1-3.13c0.248-0.709 0.462-1.52 0.642-2.26h0.017c0.181 0.741 0.527 1.83 0.791 2.6l0.971 2.78h2.26zm-7.32 0.593c-1.81 0-2.39 0.659-2.39 2.57v4.15h-1.4v1.63h1.4v2.52l2.11 0.56v-3.08h1.99v-1.63h-1.99v-3.59c0-1.05 0.247-1.35 0.971-1.35 0.347 0 0.726 0.0492 1.02 0.132v-1.7c-0.527-0.132-1.14-0.214-1.71-0.214zm-7.43 0.164v8.19h2.11v-8.19zm1.06 9.24c-0.725 0-1.3 0.576-1.3 1.28 0 0.692 0.578 1.27 1.3 1.27 0.723 0 1.32-0.56 1.32-1.27 0-0.709-0.594-1.28-1.32-1.28zm-6.51-9.41c-0.594 0-1.19 0.0656-1.71 0.148l0.05 1.73c0.51-0.132 1.14-0.247 1.76-0.247 0.805 0 1.33 0.329 1.33 0.873 0 1.45-3.31 0.626-3.31 3.41 0 1.43 1.17 2.62 3.48 2.62 0.477 0 1-0.0661 1.5-0.148l-0.067-1.66c-0.46 0.132-1 0.214-1.51 0.214-0.825 0-1.22-0.329-1.22-0.84 0-1.33 3.36-0.742 3.36-3.39 0-1.61-1.42-2.7-3.66-2.7zm-2.88 6.46c-1.52 0.312-2.27-0.676-2.27-2.95v-3.34h-2.11v8.19h1.99c0-0.412-0.048-1.07-0.149-1.65h0.034c0.396 1.04 1.19 1.94 2.6 1.83zm-9.65 0.526c-0.874 0-1.48-0.642-1.6-1.63h3.02c0.032 1.02-0.528 1.63-1.42 1.63zm3.44-3.06h-5.08c-0.017-1.53 0.741-2.27 2.26-2.27 0.807 0 1.68 0.181 2.39 0.511l0.2-1.63c-0.874-0.346-1.91-0.527-2.93-0.527-2.6 0-4.05 1.3-4.05 4.18 0 2.5 1.38 4.35 3.84 4.35 2.39 0 3.44-1.63 3.44-3.66 0-0.28-0.017-0.609-0.067-0.955zm-10.6-3.76h-2.14l-3.03 8.19h2.31l1.3-3.69c0.197-0.56 0.396-1.22 0.544-1.81h0.032c0.133 0.56 0.297 1.19 0.494 1.75l1.32 3.76h2.24zm-8.47 0v8.19h2.11v-8.19zm1.05 9.24c-0.724 0-1.3 0.576-1.3 1.28 0 0.692 0.577 1.27 1.3 1.27 0.726 0 1.32-0.56 1.32-1.27 0-0.709-0.592-1.28-1.32-1.28zm-5.43-9.24v5.24c0 0.856-0.232 1.37-1 1.37-1.07 0-1.91-1.22-1.91-2.65v-3.95h-2.11v8.19h1.99c0-0.379-0.033-1.02-0.115-1.45l0.017-0.0164c0.494 0.972 1.45 1.65 2.78 1.65 1.84 0 2.44-1.19 2.44-2.62v-5.75zm-11.9-0.181c-3.51 0-4.3 1.91-4.3 4.04v7.26h2.14v-7.13c0-1.4 0.462-2.39 2.31-2.39 1.65 0 2.34 0.692 2.34 2.59v6.93h2.12v-6.8c0-3.05-1.68-4.5-4.61-4.5zm50.1-9.39v1.75h-1.54v-1.75h-0.969v4.2h0.969v-1.61h1.54v1.61h0.969v-4.2zm-6.18 0v0.759l1.35 2.26c0.069 0.112 0.142 0.218 0.223 0.323-0.111-0.0063-0.253-0.0125-0.659-0.0125h-0.87v0.871h2.72v-0.789l-1.42-2.29c-0.05-0.0816-0.101-0.15-0.162-0.237 0.081 0.0125 0.316 0.0125 0.815 0.0125h0.795v-0.896zm-2.59-0.0805c-1.34 0-1.66 0.721-1.66 1.56v2.72h0.968v-2.66c0-0.491 0.155-0.802 0.752-0.802 0.546 0 0.76 0.23 0.76 0.858v2.6h0.956v-2.55c0-1.18-0.666-1.73-1.78-1.73zm-5.35-7.76v5.24c0 0.857-0.231 1.37-1 1.37-1.07 0-1.91-1.22-1.91-2.65v-3.95h-2.11v12h2.11v-3.51c0-0.495-0.032-1.19-0.148-1.66l0.033-0.016c0.478 0.922 1.42 1.53 2.69 1.53 1.84 0 2.44-1.19 2.44-2.62v-5.75zm-8.91-0.148c-2.27 0-3.69 1.19-3.69 3.97 0 2.55 1.33 4.51 4.23 4.51 0.562 0 1.15-0.082 1.68-0.231l-0.214-1.83c-0.444 0.165-0.955 0.298-1.48 0.298-1.34 0-2.01-0.988-2.01-2.54 0-1.4 0.542-2.36 1.94-2.36 0.559 0 1.17 0.116 1.61 0.346l0.164-1.8c-0.56-0.214-1.37-0.378-2.24-0.378zm-7.34 0.148v8.19h2.11v-8.19zm1.06 9.24c-0.725 0-1.3 0.577-1.3 1.29 0 0.691 0.576 1.27 1.3 1.27 0.726 0 1.32-0.559 1.32-1.27 0-0.709-0.592-1.29-1.32-1.29zm-2.68-2.95c-1.52 0.314-2.27-0.676-2.27-2.95v-3.34h-2.11v8.19h1.99c0-0.412-0.048-1.07-0.147-1.65h0.033c0.395 1.04 1.18 1.94 2.6 1.83zm-8.63-6.29c0 0.378 0.017 1.02 0.098 1.45l-0.016 0.016c-0.495-0.972-1.43-1.65-2.78-1.65-1.85 0-2.44 1.19-2.44 2.62v5.75h2.09v-5.24c0-0.856 0.231-1.37 1.02-1.37 1.07 0 1.89 1.22 1.89 2.65v3.95h2.11v-8.19zm-14.2 0v1.65l4 6.52c0.229 0.379 0.46 0.708 0.726 1.05-0.397-0.0168-0.924-0.0328-2.03-0.0328h-2.57v1.93h7.18v-1.71l-4.23-6.69c-0.165-0.263-0.312-0.511-0.511-0.775 0.281 0.0332 1.04 0.0332 2.41 0.0332h2.41v-1.98h-7.38"/><path d="m215 24.4v21.2h-0.454v2.33c-6e-3 0.291-0.047 0.474-0.175 0.772-0.032 0.075-0.08 0.157-0.131 0.239v0.843s-1e-3 0.661-0.275 1.16c-0.298 0.544-0.874 0.841-1.15 0.959-0.066 0.0304-0.108 0.0441-0.116 0.0461l-0.046 0.016-0.059-0.016c-0.028-0.0079-0.484-0.152-0.919-0.743-0.391-0.543-0.406-1.24-0.409-1.43 0-0.0313 1e-3 -0.05 1e-3 -0.0524v-0.776c-0.052-0.077-0.126-0.193-0.205-0.365-0.121-0.296-0.129-0.57-0.133-0.735v-2.25h-0.457v-7.73l-1.25 1.25v2.21l-0.424 1.42-0.62 4.88v-4e-4l-0.458-4.68-0.426-1.63v-2.04l-1.24-1.24v7.55h-0.454l1e-3 2.33c-6e-3 0.291-0.047 0.474-0.176 0.772-0.032 0.075-0.08 0.157-0.132 0.239v0.843s-1e-3 0.661-0.275 1.16c-0.297 0.544-0.874 0.841-1.15 0.959-0.066 0.0304-0.108 0.0441-0.117 0.0461l-0.045 0.016-0.058-0.016c-0.03-0.0079-0.484-0.152-0.919-0.743-0.394-0.543-0.406-1.24-0.41-1.43 0-0.0313 1e-3 -0.05 1e-3 -0.0524v-0.776c-0.052-0.077-0.126-0.193-0.206-0.365-0.121-0.296-0.128-0.57-0.133-0.735v-2.25h-0.456v-21.2h-11.1c-1.56 2.86-2.44 6.14-2.44 9.63 0 5.58 2.26 10.6 5.92 14.3 3.66 3.66 8.71 5.92 14.3 5.92s10.6-2.26 14.3-5.92c3.66-3.66 5.92-8.71 5.92-14.3 0-3.49-0.887-6.77-2.44-9.63zm-0.553 4.8v-4.8h-3.6v4.8zm0 3.15v-2.84h-3.6v2.84zm0 4.66v-4.35h-3.6v4.35zm-1.11 2.13v-1.82h-1.38v1.82c0 0.351 0.129 0.636 0.333 0.831 0.102 0.0969 0.221 0.169 0.356 0.221h1e-3c0.135-0.0527 0.252-0.124 0.354-0.221 0.205-0.196 0.333-0.48 0.333-0.831zm1.11 1.83v-3.65h-0.801v1.82c0 0.428-0.16 0.8-0.431 1.06-0.143 0.138-0.313 0.239-0.502 0.305-8e-3 0.0039-0.066 0.0222-0.066 0.0222s-0.057-0.0187-0.063-0.0211c-0.189-0.0648-0.363-0.168-0.508-0.306-0.268-0.256-0.43-0.629-0.43-1.06v-1.82h-0.803v3.65zm-1.18 1.6v-1.29h-1.23l-1e-3 1.29c4e-3 0.5 0.25 0.846 0.618 1.01 0.367-0.162 0.612-0.508 0.617-1.01zm1.18 1.58v-2.87h-0.873v1.29c0 0.429-0.159 0.791-0.418 1.04-0.141 0.134-0.31 0.235-0.497 0.3-0.011 0.0039-0.01 0.0043-0.01 0.0043s-2e-3 -4e-4 -0.015-0.0043c-0.185-0.0644-0.355-0.165-0.496-0.3-0.262-0.249-0.42-0.612-0.42-1.04v-1.29h-0.875v2.87zm0 1.05v-0.737h-3.6v0.737zm-2.67 3.23c0.083-0.204 0.097-0.424 0.098-0.58l4e-3 -2.28h-0.58v2.28c3e-3 0.154 0.02 0.362 0.108 0.576 0.063 0.137 0.125 0.25 0.177 0.328 0.067-0.0965 0.129-0.19 0.193-0.327zm1.31-0.595v-2.26h-0.89c-1e-3 0.631-2e-3 2.26-2e-3 2.27 8e-3 0.148 0.02 0.353 0.127 0.564 0.112 0.222 0.324 0.353 0.324 0.353h1e-3s0.199-0.131 0.311-0.353 0.123-0.414 0.129-0.566zm0.616 0.92c0.055-0.0777 0.115-0.192 0.178-0.328 0.086-0.214 0.109-0.422 0.113-0.576v-2.28h-0.587v2.28c2e-3 0.157 0.031 0.374 0.114 0.578 0.071 0.16 0.129 0.251 0.182 0.326zm-2.05 1.13c0.015 0.254 0.085 0.736 0.331 1.06 0.187 0.255 0.373 0.406 0.509 0.494 0.062 0.0398 0.113 0.0656 0.149 0.0828 0.037-0.0172 0.086-0.043 0.149-0.0828 0.135-0.0879 0.322-0.24 0.509-0.494 0.246-0.328 0.315-0.81 0.331-1.06zm1.98-0.311v-0.17c-4e-3 -0.0348-0.014-0.0856-0.031-0.133-0.029-0.0778-0.102-0.201-0.198-0.352-0.037-0.0597-0.102-0.159-0.172-0.302-0.092 0.141-0.17 0.234-0.225 0.291-0.06 0.0648-0.142 0.147-0.208 0.225-0.144 0.17-0.151 0.272-0.151 0.272v-7e-4s-5e-3 -0.102-0.149-0.272c-0.067-0.0781-0.148-0.16-0.209-0.225-0.055-0.0586-0.133-0.153-0.228-0.297-0.073 0.147-0.138 0.249-0.175 0.311-0.097 0.151-0.17 0.274-0.199 0.352-0.029 0.0746-0.037 0.162-0.038 0.169v0.131zm-3.17-20.4v-4.8h-4.6v4.8zm-3.15 3.15v-1.83h1.71v1.83h1.44v-2.84h-4.6v2.84zm3.15 2.36v-2.05h-1.44v0.513c0 0.471-0.382 0.856-0.856 0.856-0.473 0-0.856-0.385-0.856-0.856v-0.513h-1.45v2.05zm0 2.3v-1.76h-4.6v1.76zm-2.3 2.61 2.29-2.29h-4.59zm-0.48 1.7 0.362 1.55 0.149 2.59 0.089-2.59 0.362-1.55zm0.975-0.373v-1.29l-0.495 0.495-0.495-0.494v1.29zm-3.17-11.7v-4.8h-3.6v4.8zm0 3.15v-2.84h-3.6v2.84zm0 4.66v-4.35h-3.6v4.35zm-1.11 2.13v-1.82h-1.38v1.82c0 0.351 0.128 0.636 0.333 0.831 0.102 0.0969 0.221 0.169 0.356 0.221h1e-3c0.134-0.0527 0.252-0.124 0.353-0.221 0.206-0.196 0.333-0.48 0.333-0.831zm1.11 1.83v-3.65h-0.8v1.82c0 0.428-0.161 0.8-0.43 1.06-0.145 0.138-0.315 0.239-0.503 0.305-0.01 0.0039-0.067 0.0222-0.067 0.0222s-0.056-0.0187-0.062-0.0211c-0.189-0.0648-0.362-0.168-0.508-0.306-0.268-0.256-0.43-0.629-0.429-1.06v-1.82h-0.804v3.65zm-1.18 1.6v-1.29h-1.24v1.29c5e-3 0.5 0.251 0.846 0.619 1.01 0.366-0.162 0.612-0.508 0.617-1.01zm1.18 1.58v-2.87h-0.872v1.29c1e-3 0.429-0.158 0.791-0.419 1.04-0.14 0.134-0.309 0.235-0.496 0.3-0.011 0.0039-0.01 0.0043-0.01 0.0043s-2e-3 -4e-4 -0.014-0.0043c-0.187-0.0644-0.356-0.165-0.496-0.3-0.263-0.249-0.421-0.612-0.42-1.04v-1.29h-0.876v2.87zm0 1.05v-0.737h-3.6v0.737zm-2.67 3.23c0.084-0.204 0.098-0.424 0.1-0.58l3e-3 -2.28h-0.58v2.28c3e-3 0.154 0.02 0.362 0.107 0.576 0.064 0.137 0.125 0.25 0.178 0.328 0.066-0.0965 0.129-0.19 0.192-0.327zm1.31-0.595-1e-3 -2.26h-0.889c-1e-3 0.631-1e-3 2.26-1e-3 2.27 7e-3 0.148 0.018 0.353 0.126 0.564 0.112 0.222 0.323 0.353 0.323 0.353h1e-3s0.201-0.131 0.313-0.353 0.122-0.414 0.128-0.566zm0.616 0.92c0.056-0.0777 0.113-0.192 0.178-0.328 0.087-0.214 0.11-0.422 0.113-0.576v-2.28h-0.588v2.28c3e-3 0.157 0.032 0.374 0.115 0.578 0.072 0.16 0.128 0.251 0.182 0.326zm-2.05 1.13c0.016 0.254 0.085 0.736 0.331 1.06 0.188 0.255 0.374 0.406 0.509 0.494 0.063 0.0398 0.113 0.0656 0.15 0.0828 0.037-0.0172 0.086-0.043 0.148-0.0828 0.136-0.0879 0.321-0.24 0.509-0.494 0.247-0.328 0.316-0.81 0.332-1.06zm1.98-0.311v-0.17c-4e-3 -0.0348-0.014-0.0856-0.031-0.133-0.03-0.0778-0.102-0.201-0.199-0.352-0.036-0.0597-0.1-0.159-0.171-0.302-0.092 0.141-0.17 0.234-0.225 0.291-0.062 0.0648-0.142 0.147-0.208 0.225-0.144 0.17-0.151 0.272-0.151 0.272v-7e-4s-5e-3 -0.102-0.149-0.272c-0.067-0.0781-0.148-0.16-0.208-0.225-0.057-0.0586-0.136-0.153-0.229-0.297-0.074 0.147-0.139 0.249-0.176 0.311-0.096 0.151-0.168 0.274-0.198 0.352-0.028 0.0738-0.037 0.159-0.039 0.168v0.132zm20.8-26h-34.6c-0.102 0.166-0.199 0.335-0.296 0.504h35.2c-0.096-0.169-0.194-0.338-0.293-0.504zm-1.36-1.97c-0.234 0.495-0.738 0.838-1.32 0.838-0.808 0-1.46-0.656-1.46-1.46v-0.472h-0.53v0.472c0 0.809-0.654 1.46-1.46 1.46-0.81 0-1.46-0.656-1.46-1.46v-0.472h-0.529v0.472c0 0.809-0.655 1.46-1.46 1.46-0.809 0-1.46-0.656-1.46-1.46v-0.472h-0.529v0.472c0 0.809-0.656 1.46-1.46 1.46-0.808 0-1.46-0.656-1.46-1.46v-0.472h-0.546c-0.166 1.1-1.11 1.94-2.25 1.94-1.14 0-2.08-0.841-2.25-1.94h-0.561v0.472c0 0.809-0.656 1.46-1.46 1.46-0.809 0-1.46-0.656-1.46-1.46v-0.472h-0.529v0.472c0 0.809-0.655 1.46-1.46 1.46-0.808 0-1.46-0.656-1.46-1.46v-0.472h-0.53v0.472c0 0.809-0.656 1.46-1.46 1.46s-1.46-0.656-1.46-1.46v-0.472h-0.529v0.472c0 0.809-0.656 1.46-1.46 1.46-0.579 0-1.08-0.338-1.32-0.826-0.357 0.459-0.693 0.932-1.01 1.42h33.9c-0.32-0.492-0.659-0.97-1.02-1.43zm-1.66-1.87c-3.15-3.15-7.34-5.27-12-5.79v2.31h0.854c1.58 0 2.73 0.132 2.73 0.132s-1.18 0.179-2.73 0.179h-0.854v3.4h1.02v1.02c0 0.584 0.475 1.06 1.06 1.06 0.585 0 1.06-0.473 1.06-1.06v-1.02h1.34v0.0063h1e-3v1.01c0 0.584 0.474 1.06 1.06 1.06 0.583 0 1.06-0.473 1.06-1.06v-1.02h1.34v1.02c0 0.584 0.473 1.06 1.06 1.06 0.584 0 1.06-0.473 1.06-1.06v-1.02h1.34v1.02c0 0.584 0.474 1.06 1.06 1.06 0.464 0 0.857-0.298 1-0.713-0.449-0.554-0.926-1.09-1.43-1.59zm-13.1-1.65c-0.141-0.535-0.628-0.931-1.21-0.931s-1.07 0.396-1.21 0.931zm-1.55 1.06c0.097-0.268 0.352-0.46 0.654-0.46 0.326 0 0.598 0.226 0.674 0.53 0.201-0.0097 0.402-0.0695 0.603-0.238 0.193-0.162 0.27-0.44 0.295-0.578h-3.76c0.027 0.138 0.103 0.416 0.296 0.578 0.412 0.346 0.833 0.233 1.24 0.168zm-0.489 2.88 0.41-0.586 0.418 0.795 0.418-0.795 0.41 0.586-0.163-1.02h-1.33zm0.194-1.33h1.28c0.047-0.118 0.171-0.416 0.245-0.588 0.053-0.119 0.119-0.248 0.038-0.38-0.097-0.156-0.224-0.134-0.313-0.127-4e-3 7e-4 -0.01 0-0.015 7e-4 -0.09-0.244-0.321-0.42-0.597-0.42-0.274 0-0.507 0.175-0.596 0.42-5e-3 -7e-4 -0.01 0-0.016-7e-4 -0.09-0.0075-0.215-0.0293-0.314 0.127-0.08 0.132-0.012 0.261 0.038 0.38 0.076 0.172 0.199 0.47 0.248 0.588zm2.2-6.81c-0.514-0.0391-1.03-0.0598-1.56-0.0598-0.523 0-1.04 0.0207-1.56 0.0586l-0.382 2.38h0.441c-0.11 0.262-0.302 0.719-0.374 0.905-0.118 0.298-0.03 0.495 0.168 0.572 0.192 0.0758 0.411-0.0305 0.478-0.285l0.194-0.724h0.281v-0.56h-0.666v-0.311h0.976l1e-3 0.403h1.18v0.468h0.283l0.194 0.724c0.069 0.255 0.289 0.361 0.483 0.285 0.2-0.0766 0.288-0.273 0.169-0.572-0.032-0.0816-0.084-0.216-0.141-0.361l-0.263-0.637h-0.711v-0.311h0.919l0.167 0.403h0.096zm-3.84 2.69h-0.932v-0.311h0.932v-2.31c-4.67 0.524-8.86 2.64-12 5.79-0.452 0.452-0.883 0.926-1.29 1.42 0.083 0.502 0.517 0.884 1.04 0.884 0.584 0 1.06-0.473 1.06-1.06v-1.02h1.34v0.0063h1e-3v1.01c0 0.584 0.473 1.06 1.06 1.06 0.584 0 1.06-0.473 1.06-1.06v-1.02h1.34v1.02c0 0.584 0.472 1.06 1.06 1.06s1.06-0.473 1.06-1.06v-1.02h1.34v1.02c0 0.584 0.474 1.06 1.06 1.06s1.06-0.473 1.06-1.06v-1.02h0.842zm2.28 38c-11.4 0-20.6-9.22-20.6-20.6 0-11.4 9.22-20.6 20.6-20.6s20.6 9.22 20.6 20.6c-1e-3 11.4-9.22 20.6-20.6 20.6zm0.333-34.4h0.178v0.311h-0.422v-0.688h0.245zm-15.5 29c-3.89-3.89-6.29-9.26-6.29-15.2 0-5.93 2.4-11.3 6.29-15.2 3.89-3.89 9.26-6.29 15.2-6.29s11.3 2.4 15.2 6.29c3.89 3.89 6.29 9.26 6.29 15.2 0 5.93-2.4 11.3-6.29 15.2-3.89 3.89-9.26 6.29-15.2 6.29s-11.3-2.4-15.2-6.29zm-6.84-15.2c0 12.2 9.86 22 22 22 12.2 0 22-9.86 22-22s-9.86-22-22-22c-12.2 0-22 9.86-22 22zm112 2.51c-1.81 0-2.39 0.659-2.39 2.57v4.15h-1.4v1.63h1.4v2.52l2.11 0.56v-3.08h1.99v-1.63h-1.99v-3.59c0-1.05 0.245-1.35 0.971-1.35 0.346 0 0.724 0.0496 1.02 0.132v-1.7c-0.527-0.132-1.14-0.215-1.71-0.215zm-7.44 0.165v8.19h2.11v-8.19zm1.06 9.24c-0.725 0-1.3 0.576-1.3 1.28 0 0.693 0.578 1.27 1.3 1.27 0.723 0 1.32-0.56 1.32-1.27 0-0.708-0.594-1.28-1.32-1.28zm-19-2.42c-0.872 0-1.48-0.643-1.6-1.63h3.02c0.032 1.02-0.528 1.63-1.42 1.63zm3.51-2.11c0-0.28-0.019-0.609-0.067-0.956h-5.08c-0.017-1.53 0.741-2.27 2.26-2.27 0.807 0 1.68 0.181 2.39 0.511l0.199-1.63c-0.873-0.346-1.91-0.527-2.93-0.527-2.6 0-4.05 1.3-4.05 4.18 0 2.5 1.38 4.35 3.84 4.35m-60.4 7.86c-0.214 0-0.386-0.172-0.386-0.385 0-0.214 0.172-0.386 0.386-0.386s0.387 0.172 0.387 0.386c0 0.213-0.173 0.385-0.387 0.385zm0.303-25.9v0.914c0 0.17-0.138 0.309-0.309 0.309s-0.31-0.138-0.31-0.309v-0.914zm-0.113 3.46v1.03c0 0.106-0.086 0.192-0.191 0.192-0.106 0-0.192-0.0856-0.192-0.192v-1.03zm0 3.1v1.03c0 0.106-0.086 0.191-0.191 0.191-0.106 0-0.192-0.0855-0.192-0.191v-1.03zm0.166 8.22v0.793c-2e-3 0.289-0.143 0.488-0.355 0.581-0.212-0.0941-0.354-0.293-0.356-0.581v-0.793zm0-3.95v1.23c-2e-3 0.288-0.143 0.487-0.355 0.58-0.212-0.0934-0.354-0.293-0.356-0.581v-1.23zm-9.31 15c-0.213 0-0.386-0.172-0.386-0.385 0-0.214 0.173-0.386 0.386-0.386 0.212 0 0.385 0.172 0.385 0.386 0 0.213-0.173 0.385-0.385 0.385zm0.302-25.9v0.914c0 0.17-0.137 0.309-0.308 0.309s-0.309-0.138-0.309-0.309v-0.914zm-0.112 3.46v1.03c0 0.106-0.086 0.192-0.19 0.192-0.108 0-0.192-0.0856-0.192-0.192v-1.03zm0 3.1v1.03c0 0.106-0.086 0.191-0.19 0.191-0.108 0-0.192-0.0855-0.192-0.191v-1.03zm0.166 8.22v0.793c-2e-3 0.289-0.144 0.488-0.355 0.581-0.212-0.0941-0.353-0.293-0.356-0.581v-0.793zm0-3.95v1.23c-2e-3 0.288-0.144 0.487-0.355 0.58-0.212-0.0934-0.353-0.293-0.356-0.581v-1.23zm0.233-21.1c-0.211 0-0.384-0.172-0.384-0.386 0-0.214 0.173-0.386 0.384-0.386 0.214 0 0.386 0.172 0.386 0.386 0 0.213-0.172 0.386-0.386 0.386zm3.69 21.1h0.389v0.836h-0.389zm0.195 10.8c-0.213 0-0.386-0.173-0.386-0.386s0.173-0.385 0.386-0.385 0.386 0.172 0.386 0.385-0.173 0.386-0.386 0.386zm1.36-21.8v1.09c0 0.203-0.165 0.368-0.366 0.368-0.204 0-0.369-0.165-0.369-0.368v-1.09zm-1.99 0v1.09c0 0.203-0.165 0.368-0.367 0.368-0.204 0-0.369-0.165-0.369-0.368v-1.09zm11.5-8.96c-0.027 0-0.069 0.0015-0.095 0.0062-0.05 0.0098-0.054 0.0239-0.062 0.0727-0.01 0.0769-0.01 0.225-0.01 0.403v0.327c0 0.281 0 0.333 4e-3 0.391 7e-3 0.0644 0.014 0.0758 0.059 0.0855 0.023 0.0043 0.036 0.0063 0.055 0.0063s0.045 0.0109 0.045 0.0375c-4e-3 0.0304-0.031 0.0304-0.054 0.0312-0.075 0-0.199-0.0047-0.246-0.0047-0.054 0-0.185 0.0047-0.258 0.0047-0.028-8e-4 -0.055 0-0.059-0.0312 0-0.0266 0.025-0.0375 0.045-0.0375 0.021 0 0.045-2e-3 0.065-0.0082 0.036-0.0133 0.048-0.0227 0.054-0.0836 2e-3 -0.0582 2e-3 -0.11 2e-3 -0.391v-0.327c0-0.178 0-0.326-8e-3 -0.401-9e-3 -0.0539-0.015-0.0675-0.045-0.0754-0.015-0.0039-0.037-0.0054-0.063-0.0054-0.029 0-0.047-0.018-0.047-0.0364 1e-3 -0.0273 0.029-0.0343 0.052-0.0343 0.077 0 0.209 0.0062 0.252 0.0062 0.05 0 0.181-0.0062 0.308-0.0062 0.023 0 0.05 0.0062 0.052 0.0343 0 0.0207-0.02 0.0364-0.046 0.0364zm-1.16 0c-0.027 0-0.071 0.0015-0.096 0.0062-0.05 0.0098-0.054 0.0239-0.062 0.0727-0.01 0.0769-0.01 0.225-0.01 0.403v0.327c0 0.281 0 0.333 5e-3 0.391 7e-3 0.0644 0.013 0.0758 0.058 0.0855 0.023 0.0043 0.037 0.0063 0.055 0.0063 0.02 0 0.046 0.0109 0.046 0.0375-5e-3 0.0304-0.031 0.0304-0.055 0.0312-0.075 0-0.199-0.0047-0.246-0.0047-0.054 0-0.183 0.0047-0.258 0.0047-0.028-8e-4 -0.055 0-0.06-0.0312 0-0.0266 0.026-0.0375 0.047-0.0375s0.044-2e-3 0.064-0.0082c0.037-0.0133 0.048-0.0227 0.054-0.0836 3e-3 -0.0582 3e-3 -0.11 3e-3 -0.391v-0.327c0-0.178 0-0.326-9e-3 -0.401-8e-3 -0.0539-0.014-0.0675-0.045-0.0754-0.016-0.0039-0.036-0.0054-0.064-0.0054-0.029 0-0.046-0.018-0.046-0.0364 1e-3 -0.0273 0.028-0.0343 0.053-0.0343 0.078 0 0.207 0.0062 0.25 0.0062 0.051 0 0.182-0.0062 0.309-0.0062 0.023 0 0.05 0.0062 0.053 0.0343 0 0.0204-0.019 0.0364-0.046 0.0364zm-1.16 0c-0.027 0-0.072 0.0015-0.095 0.0062-0.052 0.0098-0.056 0.0239-0.064 0.0727-8e-3 0.0769-8e-3 0.225-8e-3 0.403v0.327c0 0.281 0 0.333 4e-3 0.391 7e-3 0.0644 0.012 0.0758 0.059 0.0855 0.022 0.0043 0.036 0.0063 0.054 0.0063 0.019 0 0.046 0.0109 0.046 0.0375-4e-3 0.0304-0.031 0.0304-0.055 0.0312-0.074 0-0.198-0.0047-0.246-0.0047-0.054 0-0.184 0.0047-0.257 0.0047-0.029-8e-4 -0.056 0-0.061-0.0312 0-0.0266 0.026-0.0375 0.047-0.0375 0.023 0 0.045-2e-3 0.064-0.0082 0.036-0.0133 0.048-0.0227 0.055-0.0836 2e-3 -0.0582 2e-3 -0.11 2e-3 -0.391v-0.327c0-0.178 0-0.326-0.01-0.401-7e-3 -0.0539-0.012-0.0675-0.044-0.0754-0.016-0.0039-0.035-0.0054-0.063-0.0054-0.029 0-0.047-0.018-0.047-0.0364 1e-3 -0.0273 0.029-0.0343 0.053-0.0343 0.077 0 0.208 0.0062 0.249 0.0062 0.052 0 0.184-0.0062 0.311-0.0062 0.021 0 0.05 0.0062 0.052 0.0343 0 0.0204-0.02 0.0364-0.046 0.0364zm-1 0c-0.017 0-0.047 0.0015-0.07 0.0097-0.039 0.0125-0.066 0.0293-0.097 0.0684-0.045 0.0547-0.347 0.531-0.419 0.643l0.311 0.425c0.058 0.0812 0.094 0.127 0.128 0.136 0.026 0.0063 0.049 0.0098 0.067 0.0098 0.022 0 0.044 0.0129 0.045 0.0363-2e-3 0.0277-0.029 0.0324-0.05 0.0324-0.072 0-0.152-0.0047-0.187-0.0047-0.037 0-0.127 0.0047-0.201 0.0047-0.027 0-0.056-0.0047-0.057-0.0324 1e-3 -0.0266 0.024-0.0363 0.04-0.0363 0.015 0 0.041 0 0.056-0.0051 0.017-0.0035 0.023-0.0141 0.022-0.0164 1e-3 -0.0102-5e-3 -0.0356-0.02-0.0586-0.029-0.0484-0.179-0.268-0.245-0.365-0.072 0.12-0.146 0.242-0.227 0.382-9e-3 0.0168-0.018 0.0418-0.018 0.0461 0 0.0019 2e-3 0.0086 0.015 0.0121 0.014 0.0031 0.033 0.0051 0.043 0.0051 0.019 0 0.044 9e-3 0.045 0.0363-2e-3 0.0277-0.03 0.0324-0.054 0.0324-0.073 0-0.192-0.0047-0.217-0.0047-0.09 0-0.243 0.0047-0.29 0.0047-0.024-8e-4 -0.052-8e-4 -0.056-0.0312 0-0.0196 0.016-0.0375 0.036-0.0375 0.017 0 0.046-0.0035 0.077-0.0125 0.062-0.0203 0.097-0.0551 0.145-0.128l0.331-0.517-0.367-0.497c-0.067-0.0895-0.093-0.114-0.145-0.128-0.026-0.0063-0.053-0.0078-0.065-0.0078-0.023-0.0012-0.041-0.016-0.042-0.0375 0-0.0227 0.022-0.0332 0.044-0.0332h0.033c0.032 0 0.124 0.0062 0.16 0.0062 0.049 0 0.173-0.0062 0.186-0.0062h0.034c0.025 0 0.054 0.0039 0.056 0.0332-2e-3 0.0226-0.02 0.0355-0.039 0.0375-0.015 0-0.03 0.0015-0.042 0.0015s-0.022 0.0071-0.023 0.0157v0.0023c0 0.0137 0.01 0.0379 0.026 0.0648l0.269 0.414c0.083-0.137 0.183-0.303 0.289-0.475 3e-3 -0.0062 4e-3 -0.0105 4e-3 -0.0121 1e-3 -0.0031-2e-3 -0.0039-2e-3 -0.0039-0.02-0.0043-0.037-0.0188-0.037-0.0395 6e-3 -0.034 0.035-0.0308 0.082-0.0343 0.157-0.0047 0.31-0.0047 0.356-0.0047h0.056c0.023 0 0.052 0.0062 0.053 0.0343-1e-3 0.0227-0.021 0.0364-0.039 0.0364zm-1.63 0c-0.016 0-0.045 0.0015-0.069 0.0097-0.04 0.0125-0.066 0.0293-0.097 0.0684-0.045 0.0547-0.348 0.531-0.42 0.643l0.311 0.425c0.059 0.0812 0.094 0.127 0.128 0.136 0.027 0.0063 0.049 0.0098 0.067 0.0098 0.023 0 0.046 0.0129 0.046 0.0363-1e-3 0.0277-0.03 0.0324-0.05 0.0324-0.073 0-0.152-0.0047-0.188-0.0047s-0.126 0.0047-0.2 0.0047c-0.027 0-0.056-0.0047-0.058-0.0324 1e-3 -0.0266 0.025-0.0363 0.04-0.0363s0.041 0 0.056-0.0051c0.018-0.0035 0.023-0.0141 0.023-0.0164 0-0.0102-5e-3 -0.0356-0.02-0.0586-0.03-0.0484-0.179-0.268-0.245-0.365-0.072 0.121-0.147 0.242-0.226 0.382-0.01 0.0168-0.019 0.0418-0.018 0.0461 0 0.0019 2e-3 0.0074 0.015 0.0121 0.014 0.0031 0.031 0.0051 0.041 0.0051 0.019 0 0.045 9e-3 0.045 0.0363-2e-3 0.0277-0.029 0.0324-0.054 0.0324-0.072 0-0.19-0.0047-0.215-0.0047-0.091 0-0.245 0.0047-0.292 0.0047-0.024-8e-4 -0.05-8e-4 -0.054-0.0312 0-0.0196 0.015-0.0375 0.034-0.0375 0.018 0 0.047-0.0035 0.077-0.0125 0.063-0.0203 0.097-0.0551 0.146-0.128l0.331-0.517-0.368-0.497c-0.066-0.0895-0.092-0.114-0.144-0.128-0.027-0.0063-0.054-0.0078-0.065-0.0078-0.023-0.0012-0.041-0.016-0.041-0.0375 0-0.0227 0.021-0.0332 0.043-0.0332h0.032c0.031 0 0.126 0.0062 0.161 0.0062 0.047 0 0.172-0.0062 0.185-0.0062h0.035c0.025 0 0.053 0.0039 0.056 0.0332-3e-3 0.0226-0.02 0.0355-0.04 0.0375-0.014 0-0.03 0.0015-0.041 0.0015-0.012 0-0.023 0.0071-0.023 0.0157v0.0023c0 0.0137 9e-3 0.0379 0.026 0.0648l0.268 0.414c0.084-0.137 0.184-0.303 0.29-0.475 3e-3 -0.0062 3e-3 -0.0105 3e-3 -0.0121 1e-3 -0.0031-1e-3 -0.0039-1e-3 -0.0039-0.02-0.0043-0.038-0.0188-0.038-0.0395 6e-3 -0.034 0.036-0.032 0.083-0.0343 0.156-0.0047 0.31-0.0047 0.355-0.0047h0.057c0.023 0 0.05 0.0062 0.052 0.0343 0 0.0227-0.02 0.0364-0.039 0.0364zm-1.62 0c-0.017 0-0.046 0.0015-0.07 0.0097-0.039 0.0125-0.066 0.0293-0.096 0.0684-0.045 0.0547-0.347 0.531-0.42 0.643l0.31 0.425c0.06 0.0812 0.095 0.127 0.129 0.136 0.026 0.0063 0.049 0.0098 0.066 0.0098 0.023 0 0.046 0.0129 0.047 0.0363-2e-3 0.0277-0.03 0.0324-0.05 0.0324-0.073 0-0.153-0.0047-0.188-0.0047-0.037 0-0.127 0.0047-0.201 0.0047-0.025 0-0.054-0.0047-0.056-0.0324 0-0.0266 0.024-0.0363 0.04-0.0363 0.013 0 0.04 0 0.054-0.0051 0.018-0.0035 0.024-0.0141 0.024-0.0164 0-0.0102-6e-3 -0.0356-0.021-0.0586-0.029-0.0484-0.179-0.268-0.244-0.365-0.072 0.12-0.147 0.242-0.227 0.382-9e-3 0.0168-0.019 0.0418-0.018 0.0461 0 0.0019 2e-3 0.0086 0.016 0.0121 0.012 0.0031 0.032 0.0051 0.041 0.0051 0.019 0 0.044 9e-3 0.045 0.0363-2e-3 0.0277-0.029 0.0324-0.054 0.0324-0.072 0-0.19-0.0047-0.216-0.0047-0.091 0-0.245 0.0047-0.291 0.0047-0.024-8e-4 -0.051-8e-4 -0.054-0.0312 0-0.0196 0.014-0.0375 0.034-0.0375 0.018 0 0.046-0.0035 0.077-0.0125 0.062-0.0203 0.098-0.0551 0.146-0.128l0.331-0.517-0.368-0.497c-0.066-0.0895-0.093-0.114-0.145-0.128-0.025-0.0063-0.053-0.0078-0.064-0.0078-0.023-0.0012-0.041-0.016-0.042-0.0375 0-0.0227 0.022-0.0332 0.044-0.0332h0.033c0.03 0 0.124 0.0062 0.16 0.0062 0.047 0 0.173-0.0062 0.185-0.0062h0.035c0.024 0 0.053 0.0039 0.054 0.0332-2e-3 0.0226-0.019 0.0355-0.039 0.0375-0.014 0-0.029 0.0015-0.04 0.0015-0.012 0-0.023 0.0082-0.023 0.0157v0.0023c0 0.0137 0.01 0.0379 0.026 0.0648l0.268 0.414c0.084-0.137 0.184-0.303 0.289-0.475 4e-3 -0.0062 4e-3 -0.0105 4e-3 -0.0121 0-0.0039-1e-3 -0.0039-1e-3 -0.0039-0.019-0.0043-0.037-0.0188-0.037-0.0395 5e-3 -0.034 0.034-0.032 0.082-0.0343 0.156-0.0047 0.309-0.0047 0.354-0.0047h0.058c0.023 0 0.05 0.0062 0.052 0.0343 0 0.0227-0.02 0.0364-0.039 0.0364zm-7.4 0.31c-0.025 4e-4 -0.038-0.0238-0.04-0.05-5e-3 -0.0304-0.03-0.0824-0.061-0.116-0.072-0.0797-0.158-0.0934-0.328-0.0934-0.249 0.0012-0.579 0.203-0.58 0.633 0 0.179 0.033 0.353 0.17 0.47 0.084 0.0703 0.186 0.101 0.352 0.101 0.173 0 0.298-0.0461 0.358-0.105 0.044-0.0446 0.068-0.107 0.07-0.161 0-0.0222 4e-3 -0.0531 0.035-0.0547 0.033 0.0028 0.04 0.0348 0.042 0.0614 2e-3 0.0371 2e-3 0.139 6e-3 0.199 5e-3 0.0656 9e-3 0.0859 9e-3 0.104 1e-3 0.0184-0.017 0.0367-0.042 0.0367-0.056 0.0071-0.119 0.0199-0.191 0.0305-0.088 0.0109-0.161 0.0203-0.281 0.0203-0.288 0-0.477-0.0758-0.618-0.2-0.187-0.168-0.23-0.389-0.23-0.518 0-0.181 0.052-0.396 0.245-0.558 0.178-0.15 0.405-0.205 0.667-0.205 0.125 0 0.273 0.0109 0.352 0.0425 0.034 0.0117 0.053 0.0309 0.06 0.0645 0.021 0.066 0.042 0.224 0.043 0.25-1e-3 0.0203-9e-3 0.0453-0.038 0.0484zm-1.53 0c-0.025 4e-4 -0.037-0.0238-0.039-0.05-6e-3 -0.0304-0.031-0.0824-0.062-0.116-0.072-0.0797-0.158-0.0934-0.327-0.0934-0.25 0.0012-0.581 0.203-0.583 0.633 0 0.179 0.037 0.353 0.171 0.47 0.085 0.0703 0.186 0.101 0.352 0.101 0.174 0 0.299-0.0461 0.359-0.105 0.045-0.0446 0.068-0.107 0.071-0.161 0-0.0222 3e-3 -0.0531 0.034-0.0547 0.033 0.0028 0.039 0.0348 0.042 0.0614 2e-3 0.0371 2e-3 0.139 6e-3 0.199 5e-3 0.0656 7e-3 0.0859 8e-3 0.104 1e-3 0.0184-0.017 0.0367-0.042 0.0367-0.055 0.0071-0.119 0.0199-0.19 0.0305-0.088 0.0109-0.16 0.0203-0.281 0.0203-0.288 0-0.476-0.0758-0.617-0.2-0.188-0.168-0.231-0.389-0.231-0.518 0-0.181 0.052-0.396 0.245-0.558 0.179-0.15 0.405-0.205 0.668-0.205 0.125 0 0.271 0.0109 0.352 0.0425 0.034 0.0117 0.052 0.0309 0.059 0.0645 0.02 0.066 0.041 0.224 0.042 0.25-1e-3 0.0203-8e-3 0.0453-0.037 0.0484zm-1.53 0c-0.026 4e-4 -0.037-0.0238-0.038-0.05-6e-3 -0.0304-0.032-0.0824-0.064-0.116-0.071-0.0797-0.157-0.0934-0.326-0.0934-0.251 0.0012-0.582 0.203-0.583 0.633 0 0.179 0.035 0.353 0.172 0.47 0.084 0.0703 0.186 0.101 0.352 0.101 0.173 0 0.298-0.0461 0.359-0.105 0.045-0.0446 0.067-0.107 0.069-0.161 0-0.0222 4e-3 -0.0531 0.035-0.0547 0.033 0.0028 0.04 0.0348 0.042 0.0614 2e-3 0.0371 2e-3 0.139 6e-3 0.199 4e-3 0.0656 8e-3 0.0859 8e-3 0.104 2e-3 0.0184-0.016 0.0367-0.042 0.0367-0.054 0.0071-0.118 0.0199-0.19 0.0305-0.087 0.0109-0.16 0.0203-0.281 0.0203-0.288 0-0.475-0.0758-0.618-0.2-0.187-0.168-0.229-0.389-0.229-0.518 0-0.181 0.052-0.396 0.244-0.558 0.179-0.15 0.405-0.205 0.669-0.205 0.124 0 0.271 0.0109 0.352 0.0425 0.033 0.0117 0.05 0.0309 0.058 0.0645 0.022 0.066 0.042 0.224 0.042 0.25-1e-3 0.0203-9e-3 0.0453-0.037 0.0484zm-1.81 0.3c0-0.189-0.039-0.349-0.158-0.447-0.113-0.0926-0.235-0.122-0.408-0.122-0.147-0.0012-0.22 0.0402-0.237 0.0672-0.011 0.0109-0.019 0.0785-0.021 0.122-1e-3 0.0363-4e-3 0.178-4e-3 0.374v0.233c0 0.146 0 0.298 3e-3 0.361 1e-3 0.0196 0 0.016 0.014 0.0235 8e-3 0.0062 0.076 0.0121 0.112 0.0117 0.15 0 0.353-0.0192 0.526-0.172 0.08-0.0703 0.173-0.219 0.173-0.45zm0.12 0.534c-0.216 0.216-0.543 0.215-0.783 0.215-0.115 0-0.252-0.0039-0.31-0.0039-0.054 0-0.177 0.0039-0.276 0.0039-0.028 0-0.057-0.0019-0.06-0.0316 1e-3 -0.0273 0.027-0.0363 0.049-0.0363 0.027 0 0.059-2e-3 0.071-0.0051 0.059-0.0199 0.065-0.0258 0.071-0.0867 3e-3 -0.0582 3e-3 -0.11 3e-3 -0.391v-0.326c0-0.17 0-0.316-9e-3 -0.393-7e-3 -0.0543-0.016-0.0781-0.044-0.0844-0.017-0.0039-0.037-0.0054-0.064-0.0054-0.028 0-0.046-0.018-0.046-0.0364 1e-3 -0.0261 0.028-0.0343 0.053-0.0343 0.039 0 0.087 0.0019 0.133 0.0047 0.046 0 0.087 0.0015 0.108 0.0015 0.047 0 0.116-0.0043 0.193-0.0109 0.076-0.0043 0.159-0.0106 0.229-0.0106 0.357 0 0.564 0.132 0.653 0.222 0.112 0.109 0.214 0.29 0.214 0.527 0 0.224-0.088 0.383-0.185 0.482zm-1.56-1.14c-0.022 0-0.051 0.0015-0.104 0.0172-0.049 0.0129-0.065 0.0519-0.083 0.169l-0.173 1.14c-9e-3 0.0437-0.031 0.0703-0.06 0.0722-0.027-7e-4 -0.047-0.0222-0.063-0.0539l-0.5-1.02-0.5 1c-0.026 0.0507-0.045 0.0675-0.073 0.0675-0.027-7e-4 -0.046-0.0265-0.052-0.0605l-0.19-1.21c-8e-3 -0.0613-0.028-0.127-0.065-0.128-0.028-0.0035-0.041-0.0035-0.056-0.0035-0.023 0-0.045-0.011-0.047-0.0344 0-0.0301 0.032-0.0363 0.051-0.0363 0.062 0 0.153 0.0062 0.19 0.0062 0.033 0 0.121-0.0062 0.202-0.0062 0.026 0 0.059 0.0039 0.061 0.0363-4e-3 0.025-0.025 0.0332-0.047 0.0344-0.015 0-0.031 0.0015-0.063 0.0078-0.032 0.0074-0.047 0.0144-0.047 0.039 0 0.0297 2e-3 0.0532 7e-3 0.0848l0.087 0.682c0.063-0.132 0.16-0.329 0.173-0.36 0.022-0.0547 0.174-0.335 0.219-0.421 0.033-0.0559 0.05-0.0977 0.091-0.102 0.036 0.0028 0.047 0.0281 0.09 0.113l0.394 0.791 0.101-0.76c2e-3 -0.0165 3e-3 -0.0301 3e-3 -0.0391 1e-3 -0.0227-3e-3 -0.0215-2e-3 -0.0234-0.013-0.0047-0.03-0.0125-0.03-0.0344 1e-3 -0.027 0.024-0.0352 0.07-0.0371 0.077-0.0043 0.349-0.0125 0.397-0.0125 0.029 8e-4 0.062 0.0027 0.066 0.0363-2e-3 0.027-0.026 0.0344-0.047 0.0344zm24.4 10.4c0.044 0.0406 0.063 0.0426 0.132 0.0133 0.173-0.0738 0.354-0.169 0.404-0.193 0.045-0.0246 0.075-0.0484 0.065-0.0734-0.012-0.0285-0.04-0.0195-0.066-0.0078-0.041 0.0172-0.113 0.0328-0.173 0.0402-0.262 0.0313-0.427-0.117-0.51-0.312-0.122-0.282 9e-3 -0.502 0.176-0.575 0.154-0.066 0.318-0.082 0.634 0.0906l0.176 0.0949c0.419 0.229 0.689 0.254 0.943 0.143 0.346-0.149 0.469-0.544 0.281-0.98-0.088-0.204-0.177-0.322-0.235-0.395-0.016-0.0254-0.034-0.0371-0.056-0.0273-0.04 0.0175-0.126 0.0699-0.371 0.176-0.069 0.0293-0.09 0.05-0.08 0.0754 0.01 0.0215 0.033 0.0235 0.072 0.0063 0.027-0.0117 0.132-0.0387 0.241-0.0082 0.08 0.0215 0.213 0.0722 0.302 0.276 0.099 0.232 0.027 0.432-0.161 0.513-0.145 0.0625-0.287 0.0375-0.596-0.138l-0.104-0.0586c-0.45-0.258-0.724-0.298-1.02-0.169-0.183 0.0785-0.369 0.241-0.418 0.53-0.033 0.201 0.014 0.389 0.086 0.556 0.079 0.181 0.161 0.313 0.28 0.422zm2.01 1.21c0.5-0.141 0.593-0.167 0.698-0.191 0.115-0.0246 0.18-0.0082 0.217 0.0601 0.02 0.0328 0.035 0.0754 0.046 0.114 0.01 0.0332 0.021 0.0516 0.049 0.0445 0.018-0.0062 0.017-0.034 3e-3 -0.0867-0.035-0.125-0.104-0.329-0.13-0.425-0.024-0.082-0.068-0.279-0.104-0.404-0.013-0.0422-0.026-0.0676-0.046-0.0625-0.026 0.0086-0.027 0.0301-0.018 0.0625 9e-3 0.0336 0.013 0.0602 0.018 0.102 8e-3 0.0926-0.04 0.135-0.153 0.174-0.103 0.0371-0.195 0.0625-0.695 0.204l-0.58 0.164c-0.319 0.0899-0.578 0.163-0.723 0.19-0.092 0.0152-0.157 0.0094-0.197-0.0852-0.021-0.0449-0.048-0.115-0.062-0.165-0.01-0.0363-0.025-0.0496-0.041-0.0453-0.023 0.0062-0.026 0.0355-0.016 0.0722 0.062 0.217 0.13 0.421 0.155 0.51 0.021 0.0758 0.071 0.285 0.108 0.418 0.012 0.0426 0.028 0.0625 0.051 0.0562 0.016-0.0051 0.022-0.0211 0.012-0.0605-0.015-0.0489-0.02-0.0903-0.021-0.122-5e-3 -0.0699 0.046-0.106 0.138-0.142 0.133-0.0559 0.393-0.128 0.713-0.219zm-1.02 2.9c0.032 0.0508 0.05 0.059 0.124 0.0481 0.187-0.0274 0.388-0.0695 0.442-0.0813 0.05-0.0105 0.085-0.0253 0.081-0.0523-3e-3 -0.0313-0.033-0.0297-0.062-0.0258-0.044 0.0063-0.115 0.0024-0.176-0.0055-0.261-0.0382-0.381-0.225-0.412-0.435-0.044-0.304 0.141-0.482 0.32-0.509 0.166-0.0242 0.33 0.0047 0.59 0.253l0.144 0.139c0.345 0.331 0.601 0.425 0.874 0.386 0.372-0.0539 0.595-0.404 0.528-0.874-0.033-0.219-0.085-0.357-0.124-0.442-0.01-0.0293-0.023-0.0445-0.046-0.041-0.044 0.0063-0.141 0.0336-0.405 0.0715-0.073 0.0105-0.099 0.0254-0.095 0.0515 3e-3 0.0247 0.024 0.0313 0.066 0.025 0.029-0.0035 0.137-0.0015 0.234 0.0563 0.073 0.0422 0.189 0.125 0.22 0.346 0.035 0.25-0.087 0.423-0.291 0.452-0.155 0.0227-0.285-0.0378-0.538-0.289l-0.086-0.0848c-0.365-0.364-0.62-0.476-0.941-0.431-0.198 0.0281-0.419 0.136-0.543 0.403-0.085 0.185-0.088 0.379-0.063 0.558 0.029 0.196 0.075 0.345 0.159 0.481zm0.459 3.15c-0.266-0.0164-0.353-0.064-0.375-0.133-0.018-0.0593-0.019-0.125-0.017-0.179 1e-3 -0.0375-5e-3 -0.0586-0.026-0.059-0.027-0.0011-0.036 0.0293-0.036 0.077-0.01 0.223-4e-3 0.359-6e-3 0.425-1e-3 0.0305-0.016 0.191-0.023 0.368-2e-3 0.0445 1e-3 0.0761 0.031 0.0773 0.021 4e-4 0.029-0.0203 0.03-0.0543 1e-3 -0.0445 7e-3 -0.106 0.023-0.153 0.031-0.0879 0.13-0.0985 0.427-0.0914l2.02 0.041c0.068 0.0023 0.116-0.0063 0.117-0.0406 1e-3 -0.0375-0.042-0.0692-0.1-0.13-0.043-0.0418-0.582-0.581-1.06-1.1-0.224-0.24-0.7-0.719-0.753-0.778v-0.0176l1.53 0.0883c0.208 0.0106 0.273 0.0438 0.304 0.127 0.019 0.0519 0.017 0.134 0.015 0.181-2e-3 0.041 7e-3 0.0555 0.027 0.0563 0.027 0.0011 0.032-0.0367 0.034-0.0875 7e-3 -0.177 2e-3 -0.342 5e-3 -0.414 1e-3 -0.0375 0.016-0.167 0.023-0.335 1e-3 -0.0442-1e-3 -0.0786-0.03-0.0793-0.02-8e-4 -0.031 0.0195-0.033 0.0605-1e-3 0.034-2e-3 0.0613-0.013 0.102-0.031 0.0945-0.103 0.12-0.295 0.116l-2.16-0.0379c-0.074-0.0031-0.104 0.0086-0.106 0.0406-2e-3 0.0375 0.035 0.0797 0.072 0.118 0.197 0.223 0.629 0.676 0.968 1.04 0.356 0.385 0.769 0.78 0.833 0.844l-1e-3 0.0101zm0.63 2.92c0.507 0.114 0.6 0.134 0.705 0.166 0.113 0.0317 0.159 0.0703 0.159 0.186 0 0.0281-9e-3 0.0859-0.02 0.132-9e-3 0.0367-6e-3 0.059 0.018 0.0637 0.023 0.0054 0.035-0.0164 0.046-0.0668 0.021-0.0903 0.039-0.187 0.057-0.271 0.017-0.0879 0.03-0.165 0.041-0.212 0.024-0.107 0.173-0.771 0.19-0.834 0.021-0.0622 0.041-0.114 0.053-0.139 7e-3 -0.016 0.022-0.034 0.026-0.0508 4e-3 -0.0164-9e-3 -0.023-0.026-0.027-0.023-0.0046-0.067 0.0032-0.222-0.0218-0.036-0.0039-0.184-0.0301-0.226-0.0328-0.017 0-0.038 0.0019-0.043 0.025-6e-3 0.0234 0.01 0.0343 0.039 0.041 0.024 0.0051 0.079 0.0211 0.116 0.0469 0.054 0.0371 0.087 0.0792 0.071 0.25-7e-3 0.0586-0.078 0.41-0.094 0.477-4e-3 0.0164-0.016 0.0207-0.039 0.0156l-0.844-0.19c-0.023-0.0051-0.036-0.011-0.031-0.0313 0.016-0.0734 0.102-0.457 0.126-0.532 0.024-0.0781 0.046-0.126 0.087-0.149 0.032-0.0168 0.051-0.0266 0.055-0.043 3e-3 -0.0129-1e-3 -0.0246-0.021-0.0293-0.021-0.0047-0.077-0.0031-0.25-0.0281-0.068-0.0117-0.204-0.0316-0.228-0.0371-0.025-0.0059-0.062-0.0141-0.068 0.0156-6e-3 0.0234 6e-3 0.0332 0.023 0.0371 0.033 0.0106 0.076 0.0203 0.117 0.0406 0.063 0.0317 0.102 0.0895 0.088 0.215-7e-3 0.0652-0.079 0.397-0.096 0.476-4e-3 0.0161-0.019 0.0164-0.039 0.0122l-0.263-0.059c-0.114-0.0258-0.422-0.0914-0.518-0.116-0.228-0.0586-0.266-0.123-0.189-0.464 0.019-0.0867 0.05-0.227 0.109-0.305 0.061-0.0774 0.139-0.102 0.283-0.0945 0.036 0.0015 0.051-0.0024 0.056-0.0254 7e-3 -0.027-0.02-0.0329-0.053-0.0407-0.078-0.0172-0.31-0.041-0.38-0.039-0.092 0.0031-0.099 0.0336-0.128 0.16-0.056 0.25-0.091 0.435-0.119 0.579-0.027 0.144-0.046 0.249-0.069 0.349-7e-3 0.0364-0.024 0.11-0.046 0.19-0.016 0.0766-0.043 0.161-0.057 0.228-0.01 0.0434-6e-3 0.0691 0.018 0.0746 0.016 0.0035 0.03-0.0074 0.038-0.048 0.012-0.0496 0.028-0.0887 0.041-0.117 0.028-0.0633 0.105-0.0637 0.204-0.0551 0.145 0.0148 0.408 0.0738 0.715 0.143zm-2.25 2.56c0.143 0.422 0.462 0.65 0.769 0.777 0.215 0.089 0.615 0.177 1.02-0.0117 0.303-0.141 0.553-0.389 0.748-0.86 0.081-0.196 0.118-0.318 0.158-0.471 0.034-0.127 0.047-0.24 0.077-0.338 0.011-0.0363 1e-3 -0.0547-0.019-0.0633-0.025-0.0101-0.066-0.0164-0.179-0.0558-0.107-0.0367-0.279-0.111-0.345-0.132-0.049-0.0164-0.076-0.0203-0.088 0.0078-0.011 0.025 0.012 0.0418 0.056 0.0606 0.096 0.0437 0.19 0.13 0.24 0.243 0.067 0.15 0.051 0.432-0.071 0.722-0.113 0.274-0.257 0.426-0.441 0.512-0.306 0.143-0.632 0.0785-0.937-0.0476-0.752-0.311-0.889-1.04-0.714-1.46 0.117-0.281 0.219-0.438 0.417-0.505 0.081-0.0285 0.19-0.0324 0.252-0.0215 0.054 0.011 0.07 0.0102 0.081-0.0144 9e-3 -0.0223-0.011-0.0379-0.036-0.0481-0.039-0.0156-0.329-0.0918-0.449-0.105-0.06-0.0062-0.082 0-0.126 0.045-0.102 0.105-0.223 0.336-0.307 0.538-0.179 0.432-0.235 0.835-0.104 1.23zm0.253 2.18c0.448 0.264 0.529 0.312 0.621 0.374 0.096 0.0648 0.129 0.124 0.106 0.197-0.011 0.0383-0.031 0.0778-0.051 0.113-0.017 0.0297-0.022 0.0512 1e-3 0.0645 0.017 0.0101 0.038-0.0094 0.066-0.0567 0.067-0.112 0.166-0.303 0.216-0.388 0.044-0.0734 0.155-0.242 0.222-0.354 0.021-0.0383 0.03-0.0656 0.013-0.0761-0.024-0.0137-0.04 7e-4 -0.058 0.03-0.018 0.0297-0.034 0.0512-0.061 0.0828-0.061 0.0708-0.126 0.0649-0.231 0.0106-0.099-0.0496-0.181-0.0988-0.629-0.362l-0.518-0.306c-0.286-0.168-0.519-0.306-0.638-0.392-0.074-0.0558-0.115-0.107-0.075-0.203 0.018-0.0445 0.05-0.112 0.078-0.157 0.017-0.032 0.017-0.0516 4e-3 -0.0606-0.021-0.0125-0.043 0.0067-0.064 0.0383-0.113 0.194-0.215 0.385-0.263 0.465-0.038 0.0671-0.157 0.248-0.225 0.366-0.024 0.0386-0.027 0.064-6e-3 0.0761 0.015 9e-3 0.03 2e-3 0.051-0.0332 0.025-0.0441 0.052-0.0761 0.074-0.0988 0.047-0.0519 0.106-0.0402 0.198 0.0012 0.132 0.0582 0.365 0.195 0.651 0.363zm-1.77 2.01c-0.029-0.0238-0.036-0.0375-0.028-0.0625 0.026-0.0707 0.081-0.158 0.135-0.224 0.087-0.106 0.125-0.132 0.199-0.152 0.122-0.0332 0.307-0.0113 0.526 0.164 0.378 0.305 0.285 0.643 0.16 0.8-0.055 0.0664-0.097 0.113-0.126 0.132-0.019 0.0145-0.034 0.011-0.056-0.0055zm-0.042 0.484c0.404 0.326 0.479 0.386 0.559 0.46 0.087 0.0781 0.113 0.134 0.06 0.237-0.011 0.025-0.045 0.0734-0.074 0.11-0.024 0.0297-0.032 0.0496-0.013 0.0649 0.018 0.0144 0.038 4e-4 0.07-0.0395 0.114-0.141 0.241-0.315 0.287-0.371 0.072-0.0906 0.243-0.286 0.31-0.37 0.134-0.167 0.263-0.358 0.279-0.581 0.01-0.115-0.041-0.331-0.219-0.475-0.197-0.159-0.444-0.221-0.879-0.128-0.108-0.478-0.197-0.852-0.235-1.14-0.035-0.273 0.035-0.398 0.059-0.443 0.018-0.0344 0.034-0.0602 0.051-0.0817 0.017-0.0214 0.018-0.0386 4e-3 -0.0488-0.021-0.0172-0.041-0.0023-0.066 0.0293l-0.204 0.252c-0.12 0.15-0.16 0.227-0.179 0.326-0.03 0.164 0.013 0.365 0.098 0.68 0.061 0.225 0.142 0.493 0.155 0.559 6e-3 0.0262-5e-3 0.0449-0.019 0.0637l-0.182 0.236c-0.012 0.0137-0.022 0.0172-0.038 0.0043l-0.037-0.0301c-0.248-0.199-0.459-0.369-0.56-0.472-0.071-0.07-0.116-0.134-0.062-0.222 0.026-0.0438 0.068-0.107 0.093-0.139 0.018-0.0211 0.018-0.0386 6e-3 -0.0492-0.02-0.0141-0.043-0.0023-0.07 0.032-0.125 0.155-0.274 0.359-0.307 0.398-0.042 0.0508-0.184 0.212-0.269 0.318-0.029 0.0348-0.035 0.0598-0.017 0.0747 0.013 0.0109 0.029 0.0066 0.056-0.0254 0.032-0.0395 0.062-0.0672 0.088-0.0871 0.052-0.0446 0.122-0.011 0.209 0.0402 0.122 0.0773 0.333 0.247 0.576 0.444zm-2.59 2.44c0.338 0.394 0.4 0.467 0.467 0.554 0.07 0.0926 0.086 0.152 0.016 0.244-0.016 0.0231-0.059 0.0637-0.095 0.095-0.029 0.0238-0.041 0.0429-0.024 0.0609 0.015 0.018 0.038 0.0078 0.077-0.0258 0.137-0.118 0.294-0.266 0.372-0.333 0.062-0.0531 0.232-0.186 0.326-0.266 0.039-0.0336 0.053-0.0543 0.037-0.0723-0.016-0.0183-0.037-0.0101-0.061 0.0121-0.029 0.0247-0.047 0.0352-0.082 0.0567-0.083 0.0476-0.141 0.0211-0.224-0.0653-0.077-0.0785-0.138-0.152-0.477-0.545l-0.312-0.363c-0.323-0.377-0.384-0.599-0.345-0.812 0.035-0.195 0.144-0.309 0.233-0.384 0.114-0.0977 0.285-0.182 0.479-0.167 0.265 0.0203 0.473 0.248 0.702 0.514l0.279 0.324c0.338 0.394 0.4 0.467 0.467 0.554 0.07 0.0929 0.085 0.152 0.014 0.244-0.016 0.0235-0.058 0.0637-0.086 0.0883s-0.039 0.0426-0.024 0.0605c0.015 0.0188 0.038 0.0086 0.073-0.0226 0.133-0.113 0.289-0.261 0.292-0.264 0.032-0.0269 0.202-0.16 0.304-0.246 0.034-0.0312 0.049-0.0519 0.033-0.0703-0.014-0.0183-0.035-0.0105-0.065 0.0164-0.029 0.025-0.047 0.0356-0.083 0.0567-0.081 0.048-0.14 0.0211-0.223-0.0649-0.077-0.0785-0.139-0.152-0.477-0.546l-0.239-0.277c-0.247-0.288-0.537-0.569-0.916-0.569-0.319 0-0.531 0.131-0.7 0.277-0.137 0.118-0.38 0.339-0.423 0.673-0.029 0.232 0.037 0.509 0.36 0.886zm-1.54 1.94-0.447 0.246c-0.174 0.0949-0.254 0.122-0.335 0.082-0.056-0.0265-0.092-0.0535-0.112-0.0734-0.019-0.0203-0.036-0.0269-0.052-0.0168-0.022 0.0121-0.019 0.0305 1e-3 0.0633 0.026 0.0465 0.241 0.282 0.26 0.303 0.032 0.0324 0.05 0.0453 0.069 0.0344 0.023-0.0141 0.035-0.0606 0.105-0.109 0.081-0.0594 0.19-0.131 0.286-0.188l1.17-0.686c0.094-0.0551 0.165-0.0848 0.212-0.104 0.05-0.0172 0.076-0.0254 0.088-0.0324 0.02-0.0121 0.014-0.0317-0.013-0.0758-0.036-0.0617-0.165-0.26-0.21-0.337-0.02-0.0286-0.035-0.0426-0.053-0.0317-0.024 0.0137-0.021 0.0321 3e-3 0.0781l0.016 0.0336c0.038 0.0805 7e-3 0.21-0.253 0.37l-0.365 0.226-0.71-1.21c-0.16-0.272-0.296-0.504-0.356-0.64-0.04-0.0871-0.061-0.162 0.021-0.226 0.039-0.0297 0.1-0.0743 0.144-0.1 0.033-0.0192 0.042-0.0368 0.033-0.0512-0.012-0.0207-0.04-0.0156-0.073 0.0035-0.195 0.114-0.374 0.232-0.457 0.28-0.069 0.0402-0.259 0.141-0.377 0.209-0.039 0.0226-0.055 0.0437-0.043 0.0648 8e-3 0.0144 0.027 0.0164 0.061-0.0047 0.044-0.0262 0.084-0.0406 0.113-0.0496 0.067-0.0234 0.122 0.0305 0.181 0.11 0.088 0.116 0.225 0.349 0.384 0.62zm-17.9-2.48c-0.058-0.0078-0.077 0.0012-0.114 0.0664-0.097 0.161-0.188 0.345-0.214 0.394-0.023 0.0461-0.034 0.0836-0.01 0.0973 0.026 0.0156 0.045-0.0086 0.059-0.0321 0.022-0.0383 0.07-0.0933 0.115-0.135 0.195-0.179 0.414-0.156 0.596-0.0477 0.266 0.157 0.288 0.413 0.195 0.569-0.084 0.144-0.21 0.253-0.565 0.299l-0.198 0.0257c-0.475 0.0618-0.707 0.201-0.85 0.439-0.19 0.323-0.058 0.716 0.351 0.959 0.19 0.113 0.333 0.157 0.421 0.182 0.029 0.0098 0.049 0.0098 0.061-0.0109 0.023-0.0387 0.062-0.13 0.198-0.36 0.037-0.0644 0.042-0.0937 0.019-0.107-0.02-0.0121-0.038 4e-4 -0.06 0.0352-0.016 0.0261-0.085 0.109-0.191 0.149-0.078 0.0297-0.215 0.0676-0.406-0.0453-0.218-0.129-0.275-0.334-0.171-0.511 0.081-0.135 0.209-0.198 0.562-0.239l0.12-0.0133c0.514-0.0559 0.761-0.184 0.927-0.463 0.101-0.171 0.156-0.412 0.026-0.676-0.09-0.181-0.241-0.305-0.396-0.397-0.17-0.101-0.314-0.159-0.475-0.178zm-1.78-0.0226c0.014 0.0109 0.01 0.0207 1e-3 0.0265l-0.769 0.468c-0.01 0.0086-0.024 0.0199-0.031 0.0133-9e-3 -0.0067-4e-3 -0.0239 2e-3 -0.0371l0.279-0.854c6e-3 -0.0125 0.015-0.0184 0.026-0.0098zm-0.439-0.568c-0.013-0.0105-0.014-0.0211-6e-3 -0.041l0.161-0.497c0.024-0.0879 0.063-0.163 0.089-0.195 0.038-0.0484 0.089-0.0633 0.173 0.0027l0.04 0.0317c0.032 0.025 0.043 0.0265 0.057 0.0105 0.017-0.0211 6e-3 -0.0398-0.024-0.0625-0.086-0.0683-0.207-0.152-0.29-0.218-0.031-0.0239-0.17-0.149-0.31-0.26-0.034-0.0277-0.055-0.0355-0.072-0.0141-0.012 0.0161-5e-3 0.0297 0.016 0.0469 0.023 0.0192 0.059 0.0524 0.079 0.0715 0.109 0.114 0.087 0.246 0.035 0.422l-0.668 2.21c-0.03 0.104-0.037 0.146-0.01 0.166 0.023 0.0195 0.059 0.0082 0.134-0.0317 0.182-0.0965 1.48-0.845 1.97-1.11 0.293-0.16 0.401-0.136 0.468-0.104 0.046 0.0234 0.088 0.0531 0.12 0.0789 0.022 0.0172 0.037 0.025 0.052 0.0062 0.018-0.0215-3e-3 -0.0461-0.101-0.125-0.097-0.0769-0.292-0.232-0.51-0.397-0.049-0.0356-0.081-0.0618-0.097-0.043-0.014 0.016-6e-3 0.0301 0.019 0.0543 0.014 0.0199 0.013 0.0594-0.025 0.0808l-0.666 0.396c-0.016 9e-3 -0.029 0.0083-0.042-0.0027zm-2.6-0.42-0.34-0.379c-0.131-0.15-0.175-0.221-0.155-0.31 0.013-0.0593 0.031-0.1 0.048-0.124 0.014-0.0238 0.017-0.0406 3e-3 -0.0559-0.016-0.0175-0.034-0.0105-0.061 0.0153-0.04 0.0375-0.222 0.299-0.237 0.322-0.025 0.0383-0.033 0.0598-0.018 0.0743 0.018 0.0199 0.065 0.0211 0.13 0.0793 0.075 0.0644 0.17 0.155 0.247 0.237l0.93 0.984c0.075 0.0793 0.119 0.141 0.149 0.183 0.028 0.0445 0.042 0.0691 0.052 0.0793 0.015 0.0175 0.033 0.0058 0.07-0.0297 0.053-0.0488 0.217-0.218 0.282-0.28 0.022-0.0262 0.033-0.0445 0.018-0.0602-0.019-0.0195-0.036-0.0129-0.075 0.02l-0.03 0.023c-0.069 0.0566-0.202 0.0551-0.417-0.162l-0.302-0.306 1.02-0.962c0.228-0.216 0.424-0.402 0.543-0.49 0.076-0.0578 0.146-0.0949 0.226-0.0293 0.038 0.0297 0.095 0.0797 0.13 0.116 0.026 0.0277 0.044 0.0332 0.056 0.0215 0.019-0.0164 7e-3 -0.0434-0.019-0.0703-0.154-0.164-0.31-0.314-0.375-0.383-0.054-0.0571-0.195-0.221-0.289-0.32-0.031-0.0329-0.054-0.043-0.072-0.0266-0.012 0.0117-0.011 0.0289 0.018 0.0594 0.035 0.0363 0.059 0.0711 0.074 0.098 0.037 0.0594-4e-3 0.126-0.069 0.201-0.092 0.111-0.288 0.297-0.518 0.512zm-0.842-2.3c-0.42 0.307-0.497 0.363-0.59 0.423-0.097 0.0617-0.166 0.0688-0.222 0.0184-0.032-0.0243-0.061-0.0586-0.084-0.0914-0.021-0.0278-0.039-0.0403-0.062-0.0243-0.015 0.0121-4e-3 0.0379 0.027 0.0825 0.077 0.105 0.213 0.273 0.271 0.353 0.052 0.0691 0.161 0.238 0.237 0.343 0.026 0.036 0.048 0.0536 0.065 0.0418 0.022-0.016 0.015-0.0371-5e-3 -0.0648-0.02-0.0273-0.034-0.0512-0.052-0.0883-0.04-0.0851-0.011-0.141 0.083-0.217 0.084-0.0703 0.162-0.127 0.582-0.433l0.485-0.355c0.269-0.195 0.487-0.354 0.614-0.43 0.081-0.0461 0.144-0.0629 0.215 0.0113 0.035 0.0351 0.084 0.0918 0.115 0.133 0.022 0.0309 0.04 0.0379 0.054 0.0281 0.02-0.014 0.011-0.0422-0.01-0.073-0.133-0.182-0.269-0.35-0.324-0.425-0.046-0.0633-0.164-0.243-0.246-0.354-0.025-0.0356-0.048-0.0489-0.067-0.0352-0.013 0.0109-0.014 0.0274 0.01 0.0606 0.031 0.0414 0.05 0.0781 0.061 0.107 0.03 0.0636-5e-3 0.114-0.079 0.181-0.105 0.0985-0.324 0.258-0.593 0.454zm0.078-2.82c-0.048-0.0355-0.067-0.0359-0.134 0.0012-0.164 0.0926-0.335 0.206-0.38 0.236-0.043 0.0282-0.072 0.0555-0.057 0.0793 0.015 0.027 0.043 0.0149 0.066 0.0012 0.039-0.0219 0.109-0.0453 0.168-0.059 0.257-0.0601 0.437 0.0703 0.541 0.254 0.153 0.268 0.045 0.502-0.112 0.591-0.146 0.0832-0.308 0.116-0.642-0.0214l-0.183-0.0754c-0.443-0.182-0.715-0.177-0.956-0.0403-0.326 0.187-0.407 0.593-0.171 1.01 0.109 0.194 0.21 0.302 0.275 0.367 0.022 0.0234 0.037 0.0332 0.059 0.0215 0.039-0.0219 0.118-0.0828 0.349-0.214 0.067-0.0367 0.084-0.0594 0.072-0.0832-0.012-0.0211-0.035-0.0203-0.072 4e-4 -0.027 0.0152-0.127 0.0527-0.238 0.0348-0.083-0.0133-0.221-0.0489-0.331-0.242-0.125-0.22-0.073-0.427 0.106-0.527 0.136-0.0781 0.28-0.0695 0.606 0.0719l0.11 0.0473c0.475 0.207 0.753 0.218 1.04 0.0574 0.173-0.0981 0.341-0.28 0.359-0.573 0.011-0.203-0.058-0.384-0.147-0.542-0.098-0.172-0.194-0.294-0.323-0.39zm-2.01-1.42c0.035-0.0137 0.05-0.0118 0.069 7e-3 0.048 0.0582 0.095 0.15 0.125 0.23 0.051 0.128 0.053 0.174 0.034 0.247-0.034 0.123-0.145 0.272-0.406 0.373-0.452 0.176-0.699-0.0738-0.772-0.262-0.031-0.0801-0.051-0.138-0.053-0.174-2e-3 -0.025 8e-3 -0.036 0.033-0.0457zm-0.397-0.279c-0.486 0.188-0.575 0.222-0.68 0.255-0.11 0.0352-0.171 0.0293-0.234-0.0668-0.016-0.0234-0.04-0.0761-0.058-0.121-0.013-0.0347-0.027-0.0519-0.05-0.0429-0.022 0.0086-0.019 0.0332-1e-3 0.0816 0.066 0.169 0.152 0.366 0.178 0.433 0.042 0.109 0.126 0.355 0.164 0.453 0.078 0.201 0.18 0.408 0.365 0.534 0.095 0.066 0.306 0.13 0.521 0.0473 0.236-0.0906 0.414-0.274 0.552-0.697 0.466 0.146 0.835 0.256 1.1 0.368 0.254 0.107 0.327 0.229 0.356 0.273 0.019 0.032 0.034 0.0598 0.044 0.086 9e-3 0.0253 0.024 0.0339 0.04 0.0277 0.026-0.0098 0.023-0.0344 9e-3 -0.0727l-0.118-0.303c-0.069-0.179-0.115-0.253-0.192-0.318-0.126-0.109-0.322-0.172-0.638-0.256-0.224-0.059-0.499-0.122-0.562-0.145-0.026-0.0086-0.036-0.0262-0.044-0.0481l-0.114-0.275c-6e-3 -0.0164-3e-3 -0.0285 0.016-0.0359l0.044-0.0168c0.297-0.114 0.548-0.212 0.689-0.248 0.096-0.0265 0.173-0.0343 0.223 0.0567 0.026 0.0453 0.059 0.112 0.074 0.151 9e-3 0.0254 0.025 0.0347 0.039 0.0285 0.023-0.0086 0.023-0.0348 7e-3 -0.0762-0.071-0.185-0.172-0.418-0.189-0.465-0.024-0.0606-0.093-0.265-0.142-0.393-0.016-0.0414-0.033-0.0598-0.055-0.0512-0.017 0.0063-0.022 0.0223-6e-3 0.0606 0.017 0.0484 0.027 0.089 0.031 0.12 0.011 0.0683-0.053 0.111-0.141 0.16-0.128 0.0672-0.38 0.165-0.672 0.278zm-0.634-2.46c-0.509 0.109-0.602 0.13-0.711 0.146-0.114 0.0176-0.175 2e-3 -0.221-0.103-0.013-0.025-0.029-0.0809-0.039-0.128-7e-3 -0.0371-0.018-0.0555-0.042-0.0504-0.022 0.0054-0.024 0.0293-0.013 0.0797 0.019 0.0906 0.043 0.187 0.06 0.27 0.023 0.0867 0.042 0.162 0.052 0.209 0.023 0.107 0.166 0.773 0.177 0.837 7e-3 0.0644 0.012 0.12 0.011 0.147 1e-3 0.0176-6e-3 0.0403-2e-3 0.0567 3e-3 0.0168 0.017 0.0172 0.035 0.0136 0.023-0.0046 0.059-0.03 0.211-0.073 0.032-0.0109 0.178-0.0488 0.217-0.0641 0.015-0.0074 0.035-0.0179 0.029-0.0422-5e-3 -0.0226-0.024-0.0257-0.053-0.0195-0.023 0.0051-0.081 0.0137-0.125 0.0059-0.064-0.0102-0.112-0.0356-0.168-0.198-0.019-0.0558-0.1-0.405-0.115-0.472-4e-3 -0.0172 5e-3 -0.0254 0.028-0.0305l0.846-0.182c0.023-0.0047 0.037-0.0043 0.042 0.0156 0.017 0.0738 0.099 0.458 0.107 0.537 0.011 0.0816 0.012 0.134-0.014 0.171-0.023 0.0293-0.036 0.0461-0.033 0.0629 2e-3 0.0133 0.012 0.0215 0.032 0.0176 0.02-0.0043 0.071-0.0293 0.239-0.0797 0.065-0.0172 0.197-0.0563 0.222-0.061 0.025-0.0058 0.061-0.0136 0.055-0.0433-5e-3 -0.0235-0.019-0.0281-0.037-0.0235-0.033 0.0032-0.076 0.0125-0.123 0.0118-0.069-2e-3 -0.13-0.0383-0.17-0.159-0.02-0.0621-0.094-0.392-0.111-0.472-4e-3 -0.0164 9e-3 -0.0226 0.028-0.0273l0.264-0.0567c0.114-0.0246 0.421-0.0937 0.518-0.111 0.233-0.043 0.294-4e-4 0.368 0.341 0.019 0.0871 0.048 0.227 0.027 0.323-0.021 0.0957-0.083 0.151-0.215 0.204-0.035 0.0145-0.048 0.0246-0.043 0.0477 7e-3 0.0265 0.032 0.0207 0.067 0.0136 0.077-0.0164 0.297-0.0914 0.362-0.123 0.081-0.0422 0.075-0.0723 0.048-0.199-0.054-0.251-0.101-0.433-0.135-0.576-0.036-0.143-0.063-0.246-0.084-0.346-8e-3 -0.0367-0.023-0.111-0.038-0.191-0.017-0.0766-0.028-0.165-0.043-0.232-0.01-0.0434-0.024-0.0649-0.047-0.0598-0.017 0.0035-0.023 0.0191-0.016 0.0594 0.011 0.05 0.014 0.091 0.013 0.123 1e-3 0.0691-0.069 0.102-0.163 0.137-0.138 0.0465-0.401 0.103-0.709 0.17zm-0.969-3.02c-0.19-0.0668-0.232-0.122-0.274-0.243-0.018-0.0504-0.021-0.105-0.022-0.132-2e-3 -0.0312-0.013-0.0406-0.034-0.039-0.027 0.0015-0.027 0.039-0.024 0.0906 0.011 0.181 0.034 0.375 0.041 0.494 5e-3 0.0848 5e-3 0.25 0.017 0.42 2e-3 0.0407 0.011 0.0782 0.036 0.0766 0.024-0.0019 0.029-0.023 0.028-0.0535-4e-3 -0.0547-4e-3 -0.106 0.015-0.134 0.015-0.0254 0.038-0.0371 0.068-0.0387 0.045-0.0027 0.144 0.0215 0.269 0.0618l1.59 0.488 1e-3 0.0136c-0.366 0.171-1.44 0.685-1.66 0.781-0.044 0.0199-0.094 0.0371-0.125 0.0391-0.026 0.0015-0.055-0.0102-0.068-0.0407-0.016-0.0398-0.023-0.091-0.025-0.135-2e-3 -0.0309-7e-3 -0.0582-0.031-0.0563-0.027 0.0012-0.032 0.0328-0.027 0.0973 0.011 0.171 0.03 0.314 0.032 0.357 5e-3 0.0586 5e-3 0.22 0.01 0.322 4e-3 0.0441 0.012 0.0707 0.036 0.0695 0.023-0.0012 0.028-0.0226 0.026-0.0566-1e-3 -0.034-6e-3 -0.105 0.032-0.17 0.027-0.046 0.082-0.101 0.294-0.207 0.312-0.154 0.492-0.258 0.899-0.469 0.484-0.25 0.846-0.435 1.01-0.521 0.193-0.102 0.247-0.125 0.243-0.173-3e-3 -0.0441-0.052-0.0617-0.216-0.117zm0.733-1.54c-0.519-0.0332-0.613-0.0379-0.723-0.052-0.115-0.0148-0.172-0.0523-0.184-0.128-7e-3 -0.0379-7e-3 -0.0828-5e-3 -0.124 2e-3 -0.034-4e-3 -0.0547-0.031-0.0563-0.021-0.0019-0.029 0.025-0.033 0.0789-8e-3 0.13-0.01 0.346-0.017 0.445-5e-3 0.0844-0.028 0.286-0.037 0.416-2e-3 0.0445 3e-3 0.0722 0.023 0.0738 0.027 2e-3 0.036-0.0184 0.038-0.0527 2e-3 -0.034 7e-3 -0.0614 0.016-0.102 0.023-0.0906 0.083-0.114 0.204-0.112 0.108 0 0.204 0.0051 0.722 0.0379l0.601 0.0387c0.331 0.0203 0.602 0.0371 0.747 0.0605 0.091 0.016 0.151 0.0438 0.157 0.146 5e-3 0.0488 7e-3 0.124 4e-3 0.175-3e-3 0.0383 7e-3 0.0559 0.024 0.0567 0.024 0.0015 0.035-0.0254 0.039-0.0625 0.012-0.225 0.016-0.44 0.022-0.533 5e-3 -0.0789 0.03-0.293 0.038-0.43 2e-3 -0.0434-6e-3 -0.0688-0.03-0.0692-0.018-0.0019-0.029 0.0114-0.03 0.0528-4e-3 0.0507-0.013 0.0906-0.022 0.121-0.017 0.0683-0.078 0.0847-0.176 0.0882-0.145 0.0082-0.415-0.0086-0.746-0.0293zm1.65-3.06c0.259 0.0637 0.336 0.126 0.345 0.198 8e-3 0.0609-3e-3 0.125-0.015 0.178-7e-3 0.0367-6e-3 0.0582 0.015 0.0625 0.026 0.0055 0.039-0.0235 0.05-0.0695 0.048-0.217 0.066-0.353 0.08-0.416 7e-3 -0.0304 0.052-0.185 0.09-0.359 9e-3 -0.043 0.013-0.0743-0.018-0.0805-0.02-0.0047-0.031 0.0144-0.038 0.0476-9e-3 0.0434-0.026 0.103-0.051 0.146-0.044 0.0809-0.143 0.0731-0.435 0.0137l-1.98-0.404c-0.067-0.0148-0.115-0.0148-0.123 0.0184-8e-3 0.0367 0.03 0.0761 0.077 0.146 0.034 0.0488 0.467 0.677 0.844 1.27 0.178 0.276 0.56 0.833 0.601 0.902l-4e-3 0.0164-1.49-0.362c-0.203-0.0472-0.259-0.0922-0.276-0.18-9e-3 -0.0542 9e-3 -0.134 0.019-0.181 0.01-0.0398 2e-3 -0.0551-0.019-0.0594-0.027-0.0062-0.038 0.0297-0.049 0.0801-0.037 0.173-0.063 0.336-0.077 0.405-9e-3 0.0379-0.047 0.162-0.083 0.326-9e-3 0.0437-0.014 0.0777 0.013 0.0832 0.02 0.0043 0.035-0.0137 0.044-0.054 7e-3 -0.0324 0.014-0.0597 0.032-0.0976 0.048-0.0883 0.123-0.0988 0.311-0.0613l2.12 0.426c0.073 0.0161 0.105 0.0094 0.111-0.0207 0.01-0.0371-0.018-0.0851-0.047-0.13-0.153-0.254-0.498-0.778-0.765-1.2-0.281-0.444-0.616-0.905-0.667-0.98l2e-3 -0.0098zm0.13-3.49c-0.477-0.205-0.566-0.243-0.663-0.292-0.103-0.0512-0.144-0.0989-0.121-0.211 5e-3 -0.0277 0.024-0.0828 0.043-0.127 0.015-0.0348 0.017-0.0555-6e-3 -0.0648-0.021-0.0098-0.037 0.0093-0.058 0.057-0.072 0.166-0.146 0.368-0.187 0.462-0.032 0.075-0.127 0.27-0.175 0.382-0.019 0.0477-0.023 0.0723-1e-3 0.0813 0.023 0.0101 0.037-0.0059 0.049-0.0383 0.016-0.034 0.026-0.0516 0.049-0.0863 0.053-0.0786 0.117-0.0801 0.229-0.0395 0.103 0.0367 0.192 0.0742 0.669 0.279l0.441 0.188c0.455 0.196 0.607 0.37 0.668 0.576 0.054 0.192 5e-3 0.341-0.041 0.448-0.059 0.139-0.176 0.29-0.356 0.361-0.247 0.0992-0.533-0.0125-0.856-0.152l-0.394-0.168c-0.476-0.206-0.565-0.243-0.663-0.292-0.103-0.0527-0.143-0.0988-0.121-0.211 5e-3 -0.0289 0.023-0.0828 0.039-0.118 0.015-0.0343 0.016-0.0562-6e-3 -0.0652-0.021-0.0098-0.036 0.0098-0.056 0.0543-0.068 0.16-0.144 0.363-0.144 0.365-0.018 0.0383-0.111 0.232-0.164 0.354-0.019 0.0434-0.023 0.0688 0 0.0778 0.021 0.0097 0.036-0.0063 0.053-0.0442 0.013-0.0343 0.025-0.0527 0.048-0.0871 0.051-0.0777 0.116-0.0808 0.228-0.039 0.104 0.0359 0.191 0.0746 0.67 0.279l0.336 0.143c0.349 0.15 0.733 0.275 1.07 0.107 0.287-0.141 0.419-0.352 0.507-0.556 0.071-0.167 0.19-0.472 0.081-0.791-0.075-0.222-0.257-0.441-0.711-0.637l-0.46-0.196"/></g></g></svg>
