<?xml version="1.0" encoding="UTF-8"?>
<svg width="16.2cm" height="4.28cm" version="1.2" viewBox="0 0 458 121" xmlns="http://www.w3.org/2000/svg" xmlns:cc="http://creativecommons.org/ns#" xmlns:dc="http://purl.org/dc/elements/1.1/" xmlns:rdf="http://www.w3.org/1999/02/22-rdf-syntax-ns#" xmlns:xlink="http://www.w3.org/1999/xlink"><metadata><rdf:RDF><cc:Work rdf:about=""><dc:format>image/svg+xml</dc:format><dc:type rdf:resource="http://purl.org/dc/dcmitype/StillImage"/><dc:title/></cc:Work></rdf:RDF></metadata><defs><symbol id="ag" overflow="visible"><path d="m9.75-5.88c0-1.77 0.0469-3.42-1.19-4.66-0.859-0.859-1.84-1.31-3.28-1.31s-2.42 0.453-3.28 1.31c-1.23 1.23-1.19 2.89-1.19 4.66s-0.0469 3.42 1.19 4.66c0.859 0.859 1.84 1.31 3.28 1.31s2.42-0.453 3.28-1.31c1.23-1.23 1.19-2.89 1.19-4.66zm-2.89 0c0 2.14-0.156 2.53-0.422 2.88-0.219 0.281-0.625 0.531-1.16 0.531s-0.938-0.25-1.16-0.531c-0.266-0.344-0.422-0.734-0.422-2.88s0.156-2.55 0.422-2.89c0.219-0.281 0.625-0.5 1.16-0.5s0.938 0.219 1.16 0.5c0.266 0.344 0.422 0.75 0.422 2.89z"/></symbol><symbol id="ah" overflow="visible"><path d="m7.84-8.16c-0.609-0.609-1.2-0.812-2.08-0.812-0.938 0-1.7 0.422-2.11 0.812v-0.719h-2.64v8.88h2.72v-5.31c0-1 0.719-1.22 1.08-1.22 0.469 0 0.719 0.188 0.984 0.453z"/></symbol><symbol id="ai" overflow="visible"><path d="m8.23-0.641v-8.23h-2.62v0.719c-0.547-0.547-1.08-0.812-1.98-0.812-0.859 0-1.58 0.266-2.09 0.781-0.812 0.812-0.828 1.8-0.828 3.42 0 1.61 0.0156 2.61 0.828 3.41 0.516 0.516 1.22 0.797 2.08 0.797 0.828 0 1.42-0.25 1.92-0.734v0.641c0 0.578-0.297 1.34-1.44 1.34-0.609 0-1.11-0.141-1.52-0.562l-1.69 1.69c0.906 0.906 1.95 1.16 3.33 1.16 2.44 0 4.02-1.52 4.02-3.61zm-2.7-4.12c0 0.906-0.0625 1.77-1.06 1.77-0.984 0-1.05-0.859-1.05-1.77s0.0625-1.77 1.05-1.77c1 0 1.06 0.859 1.06 1.77z"/></symbol><symbol id="ac" overflow="visible"><path d="m7.97 0v-5.77c0-2.16-1.38-3.2-3.91-3.2-1.5 0-2.33 0.266-3.23 1.19l1.69 1.67c0.422-0.422 0.719-0.594 1.41-0.594 0.953 0 1.34 0.297 1.34 1.11v0.234h-1.8c-2.11 0-3.02 1.23-3.02 2.58 0 0.812 0.25 1.56 0.766 2.08 0.5 0.484 1.23 0.781 2.12 0.781 0.953 0 1.44-0.266 1.98-0.797v0.719zm-2.7-3.33c0 0.422-0.0625 0.703-0.266 0.891-0.297 0.281-0.547 0.328-1.08 0.328-0.594 0-0.891-0.344-0.891-0.75s0.328-0.703 0.859-0.703h1.38z"/></symbol><symbol id="ad" overflow="visible"><path d="m8.61 0v-5.67c0-0.938-0.125-1.78-0.891-2.55-0.469-0.484-1.16-0.75-2-0.75-0.703 0-1.52 0.266-2.06 0.812v-0.719h-2.64v8.88h2.72v-5.31c0-1.03 0.719-1.22 1.08-1.22 0.375 0 1.09 0.188 1.09 1.22v5.31z"/></symbol><symbol id="ae" overflow="visible"><path d="m3.73 0v-8.53h-2.72v8.53zm0-9.78v-2.06h-2.72v2.06z"/></symbol><symbol id="aj" overflow="visible"><path d="m7.88-2.91c0-1.42-0.812-2.52-2.67-2.7l-1.38-0.125c-0.609-0.0781-0.578-0.406-0.578-0.5 0-0.203 0.219-0.516 0.875-0.516 0.688 0 1.44 0.0781 1.88 0.531l1.67-1.67c-0.875-0.875-2.05-1.08-3.5-1.08-1.77 0-3.53 0.969-3.53 2.94 0 1.72 1.05 2.42 2.58 2.56l1.38 0.141c0.516 0.0469 0.641 0.312 0.641 0.562 0 0.453-0.766 0.578-1.16 0.578-0.469 0-1.42 0-2.17-0.75l-1.73 1.75c1.22 1.22 2.52 1.28 3.86 1.28 2.06 0 3.84-0.906 3.84-3z"/></symbol><symbol id="ak" overflow="visible"><path d="m5.33 0v-2.28h-0.859c-0.359 0-0.547-0.188-0.547-0.547v-3.62h1.41v-2.08h-1.41v-2.55h-2.7v2.55h-0.812v2.08h0.812v3.83c0 1.22 0.797 2.62 2.75 2.62z"/></symbol><symbol id="al" overflow="visible"><path d="m8.36-4.44c0-1.73-0.219-2.59-0.969-3.41-0.531-0.562-1.42-1.12-2.86-1.12-1.42 0-2.31 0.562-2.84 1.12-0.75 0.812-0.984 1.67-0.984 3.41 0 1.75 0.234 2.59 0.984 3.39 0.531 0.562 1.42 1.14 2.84 1.14 1.44 0 2.33-0.578 2.86-1.14 0.75-0.797 0.969-1.64 0.969-3.39zm-2.7 0c0 0.875-0.0469 1.5-0.391 1.84-0.172 0.172-0.391 0.25-0.734 0.25-0.328 0-0.562-0.0781-0.719-0.25-0.344-0.344-0.391-0.969-0.391-1.84s0.0469-1.5 0.391-1.84c0.156-0.172 0.391-0.25 0.719-0.25 0.344 0 0.562 0.0781 0.734 0.25 0.344 0.344 0.391 0.969 0.391 1.84z"/></symbol><symbol id="am" overflow="visible"><path d="m9.22-11.8h-1.88l-2.7 8.55-2.7-8.55h-1.86l3.86 11.8h1.39z"/></symbol><symbol id="a" overflow="visible"><path d="m8-3.7v-0.734c0-2.38-1.3-4.03-3.55-4.03-2.14 0-3.55 1.58-3.55 4.28 0 3.19 1.67 4.28 3.77 4.28 1.47 0 2.28-0.438 3.12-1.3l-1.06-1.02c-0.594 0.609-1.09 0.859-2.03 0.859-1.38 0-2.12-0.906-2.12-2.34zm-1.66-1.17h-3.77c0.0156-0.5 0.0469-0.75 0.203-1.12 0.266-0.641 0.875-1.06 1.67-1.06s1.39 0.422 1.66 1.06c0.156 0.375 0.203 0.625 0.234 1.12z"/></symbol><symbol id="aa" overflow="visible"><path d="m7.2-7.67c-0.562-0.578-1.19-0.797-1.98-0.797-0.938 0-1.8 0.422-2.23 1.02v-0.906h-1.64v8.36h1.67v-5.08c0-1.16 0.766-1.89 1.67-1.89 0.578 0 0.875 0.188 1.25 0.562z"/></symbol><symbol id="at" overflow="visible"><path d="m8.19-4.19c0-1.28-0.109-2.69-0.938-3.53-0.469-0.469-1.19-0.75-2.03-0.75-0.891 0-1.59 0.219-2.2 0.938v-4.22h-1.67v11.8h1.64v-0.891c0.625 0.766 1.31 0.984 2.22 0.984 0.828 0 1.58-0.281 2.05-0.734 0.828-0.844 0.938-2.28 0.938-3.55zm-1.69 0c0 1.48-0.219 2.78-1.73 2.78s-1.75-1.3-1.75-2.78 0.234-2.78 1.75-2.78 1.73 1.3 1.73 2.78z"/></symbol><symbol id="af" overflow="visible"><path d="m7.48 0v-5.59c0-1.89-1.14-2.88-3.44-2.88-1.39 0-2.22 0.281-3 1.2l1.09 1.05c0.469-0.594 0.906-0.812 1.83-0.812 1.31 0 1.84 0.516 1.84 1.56v0.594h-2.22c-1.91 0-2.89 1.02-2.89 2.42 0 0.703 0.234 1.34 0.672 1.8 0.5 0.5 1.2 0.75 2.23 0.75 1.05 0 1.62-0.25 2.23-0.859v0.766zm-1.67-3.02c0 0.594-0.125 0.984-0.375 1.23-0.438 0.422-0.922 0.484-1.56 0.484-1.05 0-1.53-0.438-1.53-1.19 0-0.766 0.516-1.22 1.5-1.22h1.97z"/></symbol><symbol id="ab" overflow="visible"><path d="m8.12 0v-5.34c0-0.938-0.203-1.73-0.844-2.36-0.5-0.484-1.2-0.766-2.06-0.766-0.844 0-1.66 0.312-2.23 0.938v-0.828h-1.64v8.36h1.67v-5.09c0-1.3 0.797-1.88 1.73-1.88s1.69 0.562 1.69 1.88v5.09z"/></symbol><symbol id="y" overflow="visible"><path d="m7.78 0v-11.8h-1.67v4.22c-0.609-0.719-1.31-0.938-2.2-0.938-0.844 0-1.56 0.281-2.03 0.75-0.828 0.844-0.938 2.25-0.938 3.53 0 1.27 0.109 2.7 0.938 3.55 0.469 0.453 1.2 0.734 2.05 0.734 0.906 0 1.59-0.219 2.22-0.984v0.891zm-1.67-4.19c0 1.48-0.219 2.78-1.73 2.78s-1.75-1.3-1.75-2.78 0.234-2.78 1.75-2.78 1.73 1.3 1.73 2.78z"/></symbol><symbol id="z" overflow="visible"/><symbol id="au" overflow="visible"><path d="m8.88-3.34c0-1.02-0.312-1.86-0.953-2.42-0.5-0.438-1.11-0.703-2.2-0.875l-1.33-0.188c-0.547-0.0781-1.03-0.281-1.33-0.547-0.312-0.281-0.438-0.656-0.438-1.09 0-1.03 0.75-1.83 2.14-1.83 1 0 1.83 0.219 2.56 0.906l1.14-1.12c-1.02-0.938-2.09-1.33-3.66-1.33-2.44 0-3.92 1.41-3.92 3.44 0 0.969 0.281 1.7 0.859 2.25 0.516 0.484 1.27 0.812 2.22 0.938l1.39 0.203c0.703 0.0938 1 0.219 1.3 0.5 0.312 0.281 0.453 0.703 0.453 1.22 0 1.14-0.891 1.8-2.42 1.8-1.2 0-2.14-0.266-3-1.12l-1.19 1.17c1.11 1.14 2.39 1.55 4.16 1.55 2.45 0 4.22-1.28 4.22-3.44z"/></symbol><symbol id="an" overflow="visible"><path d="m4.83 0v-1.44h-0.688c-0.625 0-0.922-0.359-0.922-0.969v-4.53h1.61v-1.28h-1.61v-2.55h-1.69v2.55h-0.953v1.28h0.953v4.61c0 1.2 0.734 2.33 2.3 2.33z"/></symbol><symbol id="ao" overflow="visible"><path d="m8.03 0v-8.36h-1.67v5.09c0 1.28-0.797 1.86-1.73 1.86-0.953 0-1.69-0.562-1.69-1.86v-5.09h-1.69v5.34c0 0.938 0.203 1.73 0.844 2.36 0.5 0.469 1.2 0.75 2.06 0.75 0.844 0 1.66-0.312 2.23-0.938v0.844z"/></symbol><symbol id="ap" overflow="visible"><path d="m3.02 0v-8.36h-1.67v8.36zm0.0469-10v-1.78h-1.78v1.78z"/></symbol><symbol id="aq" overflow="visible"><path d="m9.05 0v-1.59h-5.73v-3.53h4.89v-1.59h-4.89v-3.42h5.73v-1.61h-7.52v11.8z"/></symbol><symbol id="ar" overflow="visible"><path d="m8.75-10.1v-1.61h-8.25v1.61h3.23v10.1h1.78v-10.1z"/></symbol><symbol id="as" overflow="visible"><path d="m9.86 0v-11.8h-1.78v5.02h-4.77v-5.02h-1.78v11.8h1.78v-5.12h4.77v5.12z"/></symbol></defs><g transform="translate(10.1 -11.8)"><g fill="#fff"><path d="m176 70.2c-1.22-2.7-3.74-4.7-7.57-4.7s-6.35 2-7.57 4.7c-0.695 1.65-0.957 2.87-1.05 4.87h17.2c-0.0898-2-0.352-3.22-1.05-4.87m-16.2 12.6c0 5.83 3.57 10.1 9.92 10.1 4.96 0 7.39-1.39 10.3-4.26l6.88 6.7c-4.61 4.61-9.05 7.14-17.2 7.14-10.7 0-21-4.88-21-23.2 0-14.8 8-23.1 19.8-23.1 12.6 0 19.8 9.22 19.8 21.7v5.05h-28.4"/><path d="m213 102c-9.22 0-13.1-6.52-13.1-13v-22.4h-4.79v-8.61h4.79v-13.4h11.3v13.4h8.01v8.61h-8.01v21.8c0 2.61 1.22 4.09 3.92 4.09h4.09v9.57h-6.18"/><path d="m255 102v-27.7c0-6-3.83-8-7.39-8-3.57 0-7.31 2.09-7.31 8v27.7h-11.3v-61.9h11.3v20.8c3.05-3.13 6.88-4.7 10.9-4.7 9.92 0 15.1 6.96 15.1 16.5v29.3h-11.3"/><path d="m71.9 101h-8.77l-16.5-44.8h11.8l9.12 27.7 9.03-27.7h11.8l-16.4 44.8"/></g><path d="m116 51.1c-14.8 0-26.8 12.1-26.8 27 0 12.5 8.42 23 19.8 26.1v-0.0469c1.61 0.391 3.35 0.566 5.07 0.566 3.65 0 7.23-0.793 9.4-2 3.4-1.9 5.7-4.47 6.83-7.63 1.21-3.4 1.08-6.74-0.379-9.94-0.762-1.67-1.97-3.38-3.59-5.08l-3.4-3.55c-3.4-3.55-4.61-5.22-5.05-6.02-0.496-0.883-0.992-2.21-0.527-3.52 0.262-0.73 1.05-2.11 3.38-3.14 1.36-0.602 2.11-0.723 2.41-0.746l0.754-2.95c-4.12-1.22-12.6-1.1-16.5 7.93-1.14 2.66-1.19 5.55-0.156 8.38 0.914 2.49 2.85 5.27 5.93 8.5l2.93 3.09c2.13 2.23 2.91 3.36 3.2 3.92 0.535 1.08 0.574 2.23 0.113 3.52-0.426 1.2-1.04 1.94-2.21 2.65-0.648 0.398-4.11 2.3-8.85 0.938-8.77-3.13-15.1-11.5-15.1-21.3 0-12.5 10.1-22.7 22.7-22.7 12.5 0 22.7 10.1 22.7 22.7 0 4.34-1.22 8.39-3.34 11.8l3.11 3.29c2.75-4.24 4.36-9.3 4.36-14.7 0-14.9-12-27-26.8-27" fill="#4cb0e7"/><g fill="#fff"><use x="286.189" y="52.747002" width="100%" height="100%" xlink:href="#ag"/><use x="296.74899" y="52.747002" width="100%" height="100%" xlink:href="#ah"/></g><g fill="#fff"><use x="304.07516" y="52.747002" width="100%" height="100%" xlink:href="#ai"/><use x="313.33167" y="52.747002" width="100%" height="100%" xlink:href="#ac"/><use x="322.17566" y="52.747002" width="100%" height="100%" xlink:href="#ad"/><use x="331.72919" y="52.747002" width="100%" height="100%" xlink:href="#ae"/><use x="336.48117" y="52.747002" width="100%" height="100%" xlink:href="#aj"/><use x="344.79718" y="52.747002" width="100%" height="100%" xlink:href="#ac"/><use x="353.64117" y="52.747002" width="100%" height="100%" xlink:href="#ak"/><use x="359.63068" y="52.747002" width="100%" height="100%" xlink:href="#ae"/><use x="364.38266" y="52.747002" width="100%" height="100%" xlink:href="#al"/><use x="373.45767" y="52.747002" width="100%" height="100%" xlink:href="#ad"/></g><g fill="#4cb0e7"><use x="286.189" y="68.751999" width="100%" height="100%" xlink:href="#am"/><use x="295.61087" y="68.751999" width="100%" height="100%" xlink:href="#a"/><use x="305.06476" y="68.751999" width="100%" height="100%" xlink:href="#aa"/><use x="313.18314" y="68.751999" width="100%" height="100%" xlink:href="#at"/><use x="323.01712" y="68.751999" width="100%" height="100%" xlink:href="#af"/><use x="332.30698" y="68.751999" width="100%" height="100%" xlink:href="#ab"/><use x="342.30582" y="68.751999" width="100%" height="100%" xlink:href="#y"/><use x="352.07379" y="68.751999" width="100%" height="100%" xlink:href="#z"/><use x="356.6929" y="68.751999" width="100%" height="100%" xlink:href="#y"/><use x="366.39487" y="68.751999" width="100%" height="100%" xlink:href="#a"/><use x="375.84995" y="68.751999" width="100%" height="100%" xlink:href="#aa"/><use x="383.75189" y="68.751999" width="100%" height="100%" xlink:href="#z"/><use x="286.189" y="85.746902" width="100%" height="100%" xlink:href="#au"/><use x="296.37103" y="85.746902" width="100%" height="100%" xlink:href="#an"/><use x="302.54211" y="85.746902" width="100%" height="100%" xlink:href="#ao"/><use x="312.52298" y="85.746902" width="100%" height="100%" xlink:href="#y"/><use x="321.64749" y="85.746902" width="100%" height="100%" xlink:href="#ap"/><use x="327.06009" y="85.746902" width="100%" height="100%" xlink:href="#a"/><use x="336.51398" y="85.746902" width="100%" height="100%" xlink:href="#aa"/><use x="344.35187" y="85.746902" width="100%" height="100%" xlink:href="#a"/><use x="353.80576" y="85.746902" width="100%" height="100%" xlink:href="#ab"/><use x="363.80499" y="85.746902" width="100%" height="100%" xlink:href="#y"/><use x="373.505" y="85.746902" width="100%" height="100%" xlink:href="#a"/><use x="382.96008" y="85.746902" width="100%" height="100%" xlink:href="#ab"/><use x="393.07608" y="85.746902" width="100%" height="100%" xlink:href="#z"/><use x="286.189" y="101.752" width="100%" height="100%" xlink:href="#af"/><use x="295.47885" y="101.752" width="100%" height="100%" xlink:href="#ab"/><use x="304.85086" y="101.752" width="100%" height="100%" xlink:href="#z"/><use x="310.12994" y="101.752" width="100%" height="100%" xlink:href="#y"/><use x="319.25446" y="101.752" width="100%" height="100%" xlink:href="#a"/><use x="329.27097" y="101.752" width="100%" height="100%" xlink:href="#aa"/><use x="336.51447" y="101.752" width="100%" height="100%" xlink:href="#z"/><use x="341.79266" y="101.752" width="100%" height="100%" xlink:href="#aq"/><use x="352.76575" y="101.752" width="100%" height="100%" xlink:href="#ar"/><use x="362.71457" y="101.752" width="100%" height="100%" xlink:href="#as"/></g></g></svg>
