<?xml version="1.0" encoding="UTF-8" standalone="no"?>
<!-- Created with Inkscape (http://www.inkscape.org/) -->

<svg
   width="100mm"
   height="100mm"
   version="1.1"
   viewBox="0 0 100.00004 100.00078"
   id="svg10"
   sodipodi:docname="polyphonia_logo_tiny.svg"
   inkscape:version="1.1 (c4e8f9ed74, 2021-05-24)"
   xmlns:inkscape="http://www.inkscape.org/namespaces/inkscape"
   xmlns:sodipodi="http://sodipodi.sourceforge.net/DTD/sodipodi-0.dtd"
   xmlns="http://www.w3.org/2000/svg"
   xmlns:svg="http://www.w3.org/2000/svg"
   xmlns:rdf="http://www.w3.org/1999/02/22-rdf-syntax-ns#"
   xmlns:cc="http://creativecommons.org/ns#"
   xmlns:dc="http://purl.org/dc/elements/1.1/">
  <defs
     id="defs14" />
  <sodipodi:namedview
     id="namedview12"
     pagecolor="#ffffff"
     bordercolor="#666666"
     borderopacity="1.0"
     inkscape:pageshadow="2"
     inkscape:pageopacity="0.0"
     inkscape:pagecheckerboard="0"
     inkscape:document-units="mm"
     showgrid="false"
     width="57.145mm"
     inkscape:zoom="0.95346451"
     inkscape:cx="300.48313"
     inkscape:cy="247.51839"
     inkscape:window-width="1920"
     inkscape:window-height="1059"
     inkscape:window-x="0"
     inkscape:window-y="0"
     inkscape:window-maximized="1"
     inkscape:current-layer="svg10" />
  <metadata
     id="metadata2">
    <rdf:RDF>
      <cc:Work
         rdf:about="">
        <dc:format>image/svg+xml</dc:format>
        <dc:type
           rdf:resource="http://purl.org/dc/dcmitype/StillImage" />
      </cc:Work>
    </rdf:RDF>
  </metadata>
  <circle
     style="fill:#ffffff;fill-opacity:1;stroke:none;stroke-width:0.265001;stroke-linecap:round;stroke-linejoin:round"
     id="path3440"
     cx="50.000015"
     cy="50.000389"
     r="50.000389" />
  <g
     id="g3416"
     transform="matrix(0.94405122,0,0,0.94405122,30.4817,2.8583484)">
    <path
       style="fill:#d0712d;fill-opacity:1;fill-rule:evenodd;stroke:none;stroke-width:0.264585px;stroke-linecap:butt;stroke-linejoin:miter;stroke-opacity:1"
       d="m 20.97578,100.81646 c 17.153931,3.50144 23.654031,-12.481864 23.4,-18.736 C 43.650419,64.222387 27.901518,65.606537 29.336059,60.70616 37.389318,58.970617 50.25702,61.230976 57.14324,71.17127 57.515524,59.86251 54.122936,41.636284 48.21014,31.20927 46.189912,50.142456 30.487657,53.058276 20.14575,56.2301 Z"
       id="path864"
       sodipodi:nodetypes="csccccc" />
    <path
       style="fill:#54595f;fill-opacity:1;fill-rule:evenodd;stroke:none;stroke-width:0.264585px;stroke-linecap:butt;stroke-linejoin:miter;stroke-opacity:1"
       d="M 16.88204,0.88699 17.120271,101.314 C -9.1088476,98.563239 5.2632703,86.080817 0.2515,78.559001 14.41365,75.986522 7.5374912,63.245007 -4.0000005e-5,63.354511 4.1658443,56.425951 -5.5741512,45.450455 13.598641,41.400319 L 13.825126,11.961684 8.7090717,10.635797 8.9408929,4.1564309 C 12.456765,2.0545869 13.023595,0.79929806 16.88204,0.88699 Z"
       id="path1944"
       sodipodi:nodetypes="ccccccccc" />
  </g>
</svg>
