<?xml version="1.0" encoding="UTF-8" standalone="no"?>
<svg
   xmlns:dc="http://purl.org/dc/elements/1.1/"
   xmlns:cc="http://creativecommons.org/ns#"
   xmlns:rdf="http://www.w3.org/1999/02/22-rdf-syntax-ns#"
   xmlns:svg="http://www.w3.org/2000/svg"
   xmlns="http://www.w3.org/2000/svg"
   xmlns:sodipodi="http://sodipodi.sourceforge.net/DTD/sodipodi-0.dtd"
   xmlns:inkscape="http://www.inkscape.org/namespaces/inkscape"
   width="1511.8"
   height="1511.8"
   version="1.1"
   viewBox="0 0 1511.8134 1511.8134"
   id="svg100"
   sodipodi:docname="polyphonia_logo.svg"
   inkscape:version="0.92.1 r">
  <defs
     id="defs104" />
  <sodipodi:namedview
     pagecolor="#ffffff"
     bordercolor="#666666"
     borderopacity="1"
     objecttolerance="10"
     gridtolerance="10"
     guidetolerance="10"
     inkscape:pageopacity="0"
     inkscape:pageshadow="2"
     inkscape:window-width="955"
     inkscape:window-height="1058"
     id="namedview102"
     showgrid="false"
     inkscape:zoom="0.46892569"
     inkscape:cx="389.10416"
     inkscape:cy="755.90002"
     inkscape:window-x="960"
     inkscape:window-y="0"
     inkscape:window-maximized="0"
     inkscape:current-layer="svg100" />
  <metadata
     id="metadata2">
    <rdf:RDF>
      <cc:Work
         rdf:about="">
        <dc:format>image/svg+xml</dc:format>
        <dc:type
           rdf:resource="http://purl.org/dc/dcmitype/StillImage" />
        <dc:title></dc:title>
      </cc:Work>
    </rdf:RDF>
  </metadata>
  <g
     transform="matrix(1.3333 0 0 -1.3333 0 1511.8)"
     id="g98">
    <path
       d="m620.03 695.89c-2.4302 0.0746-4.5906-2.2304-4.5414-4.1431 0.0492-1.9127 1.736-4.1173 4.6612-4.0633 2.9251 0.054 4.1145 1.764 4.1032 3.9838-0.0121 2.2198-1.7926 4.148-4.223 4.223zm-0.51098 4.9894c-4.8841-0.1153-9.2946-4.487-9.2026-8.8837 0.0919-4.3967 4.4362-8.8962 8.7245-9.2426 4.2883-0.3463 9.3079 3.2695 9.9593 8.4056 0.65149 5.1361-4.5971 9.836-9.4812 9.7203zm-13.346-10.517 10.198-15.378 18.325 14.979-8.2065 11.832c-8.2911 10.951-23.873-1.8269-20.317-11.433zm-29.161-53.623c-2.1096-2.6309 1.6026-5.1284 3.0277-3.9838l41.113 30.994c1.2708 0.81646 10.505 6.2181 20.676-7.3699 10.046-13.421 24.187-3.9318 25.119 5.0676 3.4771 13.12-22.099 29.351-35.781 18.138zm15.855 36.332c1.255 1.0495 4.0319-1.1755 1.9919-3.0277l-15.298-10.995c-0.90426-0.62645-3.2146 1.3279-1.5138 2.8684zm32.515-71.26c14.206 13.851 20.662 20.316 25.011 41.702-11.787 3.0462-13.207 9.0333-16.652 14.342-3.2032 3.6537-6.3532 3.3108-9.4812 1.3545l-23.743-18.007c1.4075-4.5947 1.8192-9.1893 4.223-13.784l7.4098-8.8442c18.731 13.53 19.263 25.953 13.704 38.005 0.11893 1.2058 3.4806 0.97465 3.675 0.55772 11.143-20.033-0.70277-31.37-13.555-43.104zm54.808 253.48c-7.4804-38.871-12.203-75.384-109.47-100.07l-0.15937-56.251 8.7539 13.928c3.201 3.4821 7.865 2.7176 10.361-0.0201 1.8018-1.9774 1.5857-6.9898-0.0399-8.5362l-19.441-14.82 0.12151-7.1716 24.147 18.692c9.7469 9.0958 13.809 29.856-8.5254 34.818l7.5691 2.3903c23.011-9.9827 11.772-34.947 3.2667-41.194l-26.692-19.6 0.0555-7.0865 28.946 21.109 12.748-19.6-38.125-31.392c-5.2462-4.7644-0.39194-16.49 9.0035-13.226l12.522 9.6933c1.6511-4.7483 1.4644-9.0224 5.1264-15.111l18.804-23.265c-7.0313-4.6483-14.221-8.6612-21.99-10.358l-26.452 31.233v-6.5334l24.381-30.596c-6.9378-0.99512-14.098-0.43048-21.353 0.79678l0.31869-7.6489c36.128-9.097 91.123 14.513 94.336 75.534 5.5167 8.61 8.3298 17.876-5.7368 31.233-18.785 31.087-35.383 38.11-52.107 46.531 0.54122 3.4987-0.25479 7.2397-2.7886 8.4056 60.371 10.122 85.729-14.399 108.12-41.552 1.6456-1.6477 2.7086-1.9955 3.9838-0.63741-1.2693 88.934-18.551 125.31-36.014 161.11-1.4836 1.0149-2.8506 1.4601-3.665-0.79678zm-110.36-190.3 21.184 15.324c8.3556 4.3004 17.104-8.4314 9.0144-15.437l-29.522-21.634z"
       fill="#d0712d"
       fill-rule="evenodd"
       stroke-width="4.0315"
       id="path4" />
    <path
       d="m539.61 708.46 1.4666-0.39992c-0.16843-1.4203 2.0428-2.1644 2.7666 0.39992 0.83088 1.9812-5.8077 5.2135-9.8332-5.1333-0.99436-3.8832-0.91119-5.5134-0.96666-7.4332l-2.4666-0.36686c-0.32159-0.37493-0.32079-0.88745 0.0417-1.2l2.4 0.19997 0.225-14.666c-1.3661-13.772-5.174-13.347-6.7334-13.467-3.4022 1.488-4.6326-3.2621-0.16666-2.6333 1.8168 0.34066 8.4072 3.4036 10.033 14.733l-0.1 17.166c1.9422-0.22133 3.5984 0.75183 3.9238 1.6064s-0.90406 1.732-1.6571 0.0935l-1.8 0.26648c0.0502 2.7427-0.59533 6.3866 2.8666 10.833zm16.775-135c-42.592-1.1038-63.56 19.028-64.971 41.254 0.86233 17.117 11.064 36.569-0.90143 50.482 1.3659 1.3855 2.8398 2.6196 4.7325 3.2677 30.444-2.5359 41.754 51.107-1.8029 55.662-2.0346 0.21286-2.9342 1.3335-3.9437 2.3663 10.002 18.961 2.9458 22.213 3.8311 44.507 2.4226 25.872 18.648 38.849 45.523 42.48 8.6983 1.135 10.21 7.2849 10.141 10.028l1.5775 116.51-15.099 0.33824c-3.2974-4.4165-9.6457-1.5908-9.6691 3.0885-0.0189 3.7675 4.9236 7.2288 9.5566 2.6582l14.874-0.11288 0.0467 11.739-13.608 0.0262c-3.37-3.9894-9.1813-1.193-9.2909 3.166-0.10966 4.359 6.7088 6.7172 9.2373 1.6916l13.728 0.0535 0.11268 2.7606c-0.12369 3.3293-1.2131 2.8535-1.6057 5.6622-0.39262 2.8086-1.2598 3.0732-1.2113 7.4651 3.1056 5.4913 7.9279 3.3227 9.9158-0.22536l-0.45072-298.15-1.3228 0.0403-0.32941 281.57c-2e-3 0.39601-0.5844 0.30696-0.55844 2.7e-4l-0.24051-281.57-1.9081-0.0476 0.0534 267.51c-9e-3 0.25479-0.6202 0.34026-0.61298-0.0431l-0.66459-267.49-3.8816-0.18464-0.0355-4.3915 3.896 0.12498 0.25685-49.103c0.0105-0.36364 0.81214-0.4175 0.79895 0.0282l0.2192 49.148 1.8572 0.0657 0.38404-49.216c0.0141-0.39468 0.89877-0.51445 0.86725 8e-3l-0.0756 49.196 1.4093-0.0282 0.33235-51.103-7.5437-0.0855z"
       fill="#54595f"
       fill-rule="evenodd"
       stroke-width="4.0315"
       id="path6" />
    <g
       id="g62">
      <path
         d="m488.98 224.68h-15.487v-1.231h14.256v-0.065l-15.228-37.324v-1.491h16.653v1.167h-15.357v0.129l15.163 37.324zm2.009-41.925h-20.218v3.693l14.386 35.251h-13.478v4.73h19.051v-3.628l-14.321-35.316h14.58z"
         id="path8" />
      <path
         d="m521.97 231.03h1.166v1.879h-1.166zm-1.815 3.693h4.795v-5.443h-4.795zm-7.646-3.693h1.231v1.879h-1.231zm-1.75 3.693h4.73v-5.443h-4.73zm-2.008-40.888c0-5.702 2.98-9.655 8.877-9.655s9.007 3.953 9.007 9.655v30.845h-1.166v-30.521c0-5.054-2.463-8.877-7.841-8.877-5.313 0-7.776 3.823-7.776 8.877v30.521h-1.101zm19.699 0c0-6.804-3.694-11.469-10.822-11.469-7.063 0-10.692 4.665-10.757 11.469v32.659h4.796v-32.335c0-4.017 1.879-7.063 5.961-7.063 4.147 0 6.026 3.046 6.026 7.063v32.335h4.796z"
         id="path10" />
      <path
         d="m553.07 206.86c5.119 0 6.35 2.398 6.35 7.322 0 4.471-0.907 7.517-5.767 7.517h-4.341v-14.839zm0.583 16.589c6.35 0 7.582-3.759 7.582-9.267 0-6.155-1.62-9.136-8.165-9.136h-5.508v18.403zm8.554-26.892c0 3.434-0.843 6.998-4.731 7.906 4.277 1.296 4.925 5.832 4.925 9.719 0 6.156-1.62 10.498-8.489 10.498h-7.581v-40.111h1.231v19.31h6.221c5.443 0 7.192-2.268 7.192-7.516v-11.794h1.232zm-8.295 29.872c8.359 0 10.303-4.989 10.303-12.247 0-3.304-0.583-7.192-2.98-9.59 2.008-1.879 2.721-5.119 2.721-8.035v-13.802h-4.73v13.608c0 4.017-1.361 5.702-5.443 5.702h-4.471v-19.31h-4.731v43.674z"
         id="path12" />
      <path
         d="m582.68 184.57h1.231v40.111h-1.231zm2.981-1.814h-4.73v43.675h4.73z"
         id="path14" />
      <path
         d="m604.71 194.62c0-5.897 2.657-10.497 8.942-10.497 7.323 0 8.878 5.572 8.878 11.793h-1.166c0-5.314-1.167-10.627-7.712-10.627-5.507 0-7.775 4.406-7.775 9.331v20.023c0 4.925 2.332 9.331 7.84 9.331 6.545 0 7.647-5.249 7.647-10.627h1.166c0 7.193-2.462 11.728-8.813 11.728-6.285 0-9.007-4.535-9.007-10.432zm19.634 3.11c0-8.164-0.972-15.357-10.692-15.357-7.516 0-10.756 5.314-10.756 12.247v20.023c0 6.933 3.305 12.247 10.821 12.247 8.683 0 10.627-5.314 10.627-15.357h-4.795c0 5.378-0.259 10.626-5.832 10.626-4.276 0-6.026-3.499-6.026-7.516v-20.023c0-4.018 1.685-7.581 5.961-7.581 5.12 0 5.897 4.6 5.897 10.691z"
         id="path16" />
      <path
         d="m643.66 224.68h-1.102v-40.111h1.102v19.31h13.737v-19.31h1.232v40.111h-1.232v-19.699h-13.737zm11.988-41.925v19.31h-10.174v-19.31h-4.73v43.674h4.73v-19.634h10.174v19.634h4.73v-43.674z"
         id="path18" />
      <path
         d="m114.02 474.78c0-5.702 2.981-9.655 8.877-9.655 5.897 0 9.007 3.953 9.007 9.655v30.845h-1.166v-30.521c0-5.054-2.462-8.877-7.841-8.877-5.313 0-7.775 3.823-7.775 8.877v30.521h-1.102zm19.699 0c0-6.804-3.694-11.469-10.822-11.469-7.063 0-10.691 4.665-10.756 11.469v32.659h4.795v-32.335c0-4.017 1.879-7.063 5.961-7.063 4.148 0 6.027 3.046 6.027 7.063v32.335h4.795z"
         id="path20" />
      <path
         d="m163.33 501.93c4.925-12.182 9.655-24.3 14.58-36.417h0.972v40.111h-1.102v-36.417l-14.644 36.417h-1.037v-40.111h1.231zm-2.981 5.443h3.953l11.664-28.9v28.9h4.73v-43.674h-3.953c-2.527 6.091-5.378 13.283-11.663 28.9v-28.9h-4.731z"
         id="path22" />
      <path
         d="m210.18 465.51h1.231v40.111h-1.231zm2.981-1.815h-4.73v43.674h4.73z"
         id="path24" />
      <path
         d="m241.67 505.62 9.331-40.111h0.972l9.201 40.111h-1.231l-8.424-37.324-8.618 37.324zm7.905-41.86-10.173 43.674h4.925l7.192-31.103 6.999 31.103h4.86l-9.979-43.674z"
         id="path26" />
      <path
         d="m288 465.51h13.867v1.102h-12.765v18.273h8.553v1.102h-8.553v18.467h12.765v1.167h-13.867zm11.405 22.291v-4.73h-8.554v-14.645h12.83v-4.73h-17.495v43.674h17.495v-4.665h-12.83v-14.904z"
         id="path28" />
      <path
         d="m337.9 487.8c5.119 0 6.35 2.398 6.35 7.322 0 4.471-0.907 7.517-5.767 7.517h-4.341v-14.839zm0.583 16.589c6.35 0 7.582-3.759 7.582-9.267 0-6.155-1.62-9.136-8.165-9.136h-5.508v18.403zm8.554-26.892c0 3.434-0.843 6.998-4.731 7.906 4.277 1.296 4.925 5.832 4.925 9.719 0 6.156-1.62 10.498-8.489 10.498h-7.581v-40.111h1.231v19.31h6.221c5.443 0 7.192-2.268 7.192-7.516v-11.794h1.232zm-8.295 29.872c8.359 0 10.303-4.989 10.303-12.247 0-3.304-0.583-7.192-2.98-9.59 2.008-1.879 2.721-5.119 2.721-8.035v-13.802h-4.73v13.608c0 4.017-1.361 5.702-5.443 5.702h-4.471v-19.31h-4.731v43.674z"
         id="path30" />
      <path
         d="m377.1 476.78c0-7.128 1.879-11.664 8.424-11.664 5.832 0 8.618 3.305 8.618 9.072 0 9.461-15.487 13.802-15.487 22.615 0 4.406 2.463 8.1 7.193 8.1 6.285 0 6.674-5.573 6.739-10.044h1.102c0 6.739-1.361 11.21-7.841 11.21-5.184 0-8.294-3.952-8.294-8.942 0-5.249 4.6-9.785 8.618-12.701h-0.065c3.046-2.527 6.869-6.674 6.869-10.303 0-4.924-2.463-7.905-7.452-7.905-6.415 0-7.193 6.156-7.193 10.562zm10.368 10.433c4.212-3.759 8.424-7.647 8.424-13.025 0-6.869-3.37-10.886-10.368-10.886-8.1 0-10.174 5.313-10.174 15.292h4.731c0-6.026 0.648-10.562 5.443-10.562 3.758 0 5.637 2.333 5.637 6.091 0 3.435-3.434 6.674-6.156 8.942l0.065-0.064c-4.341 3.11-9.331 8.164-9.331 14.126 0 6.026 3.823 10.692 10.109 10.692 8.748 0 9.655-6.545 9.655-14.71h-4.73c0 5.055-0.324 9.98-4.925 9.98-3.564 0-5.378-2.852-5.378-6.286 0-3.564 3.499-6.545 6.998-9.655z"
         id="path32" />
      <path
         d="m423.76 465.51h1.231v40.111h-1.231zm2.981-1.815h-4.73v43.674h4.73z"
         id="path34" />
      <path
         d="m455.44 504.45h7.193v-38.944h1.231v38.944h7.257v1.167h-15.681zm10.174-40.694h-4.731v38.945h-7.257v4.73h19.245v-4.73h-7.257z"
         id="path36" />
      <path
         d="m512.21 511.97h1.166v1.879h-1.166zm-1.814 3.693h4.795v-5.443h-4.795zm-2.268-20.93-3.111-13.867h6.221zm0 7.906 5.378-23.522h-10.757zm-5.379 9.331h1.231v1.879h-1.231zm-1.749 3.693h4.73v-5.443h-4.73zm15.551-50.154h1.167l-9.137 40.111h-0.907l-9.201-40.111h1.231l2.786 12.441h11.275zm-6.544 41.86 9.914-43.675h-4.86l-2.721 12.507h-8.295l-2.916-12.507h-4.86l9.979 43.675z"
         id="path38" />
      <path
         d="m555.56 504.45v-38.944h1.231v38.944h7.258v1.167h-15.682v-1.167zm2.981-40.694h-4.73v38.945h-7.258v4.73h19.245v-4.73h-7.257z"
         id="path40" />
      <path
         d="m590.49 476.78c0-7.128 1.879-11.664 8.424-11.664 5.832 0 8.618 3.305 8.618 9.072 0 9.461-15.487 13.802-15.487 22.615 0 4.406 2.462 8.1 7.193 8.1 6.285 0 6.674-5.573 6.739-10.044h1.102c0 6.739-1.361 11.21-7.841 11.21-5.184 0-8.295-3.952-8.295-8.942 0-5.249 4.601-9.785 8.619-12.701h-0.065c3.046-2.527 6.869-6.674 6.869-10.303 0-4.924-2.463-7.905-7.452-7.905-6.415 0-7.193 6.156-7.193 10.562zm10.368 10.433c4.212-3.759 8.424-7.647 8.424-13.025 0-6.869-3.37-10.886-10.368-10.886-8.1 0-10.174 5.313-10.174 15.292h4.731c0-6.026 0.648-10.562 5.443-10.562 3.758 0 5.637 2.333 5.637 6.091 0 3.435-3.434 6.674-6.156 8.942l0.065-0.064c-4.341 3.11-9.331 8.164-9.331 14.126 0 6.026 3.823 10.692 10.109 10.692 8.748 0 9.655-6.545 9.655-14.71h-4.73c0 5.055-0.324 9.98-4.925 9.98-3.564 0-5.379-2.852-5.379-6.286 0-3.564 3.5-6.545 6.999-9.655z"
         id="path42" />
      <path
         d="m651.79 494.93c0 4.147-1.361 8.1-5.897 8.1-4.406 0-6.026-3.953-6.026-8.035v-18.922c0-4.147 1.555-8.035 6.026-8.035 4.536 0 5.897 3.629 5.897 7.841zm-13.673 0.065c0 4.924 2.074 9.849 7.776 9.849 5.897 0 7.712-4.795 7.712-9.914v-19.051c0-5.184-1.88-9.59-7.712-9.59s-7.776 4.665-7.776 9.784zm-1.166-19.44c0-5.832 2.657-10.497 8.942-10.497 6.416 0 8.878 4.536 8.878 10.497v20.023c0 5.637-2.657 10.562-8.878 10.562-6.156 0-8.942-4.925-8.942-10.562zm19.634 0c0-6.998-3.045-12.247-10.692-12.247-7.516 0-10.756 5.378-10.756 12.247v20.023c0 6.609 3.369 12.247 10.756 12.247 7.452 0 10.692-5.638 10.692-12.247z"
         id="path44" />
      <path
         d="m691.18 487.8c5.119 0 6.35 2.398 6.35 7.322 0 4.471-0.907 7.517-5.767 7.517h-4.341v-14.839zm0.583 16.589c6.35 0 7.582-3.759 7.582-9.267 0-6.155-1.62-9.136-8.165-9.136h-5.508v18.403zm8.554-26.892c0 3.434-0.843 6.998-4.731 7.906 4.277 1.296 4.925 5.832 4.925 9.719 0 6.156-1.62 10.498-8.489 10.498h-7.581v-40.111h1.231v19.31h6.221c5.443 0 7.192-2.268 7.192-7.516v-11.794h1.232zm-8.295 29.872c8.359 0 10.303-4.989 10.303-12.247 0-3.304-0.583-7.192-2.98-9.59 2.008-1.879 2.721-5.119 2.721-8.035v-13.802h-4.73v13.608c0 4.017-1.361 5.702-5.443 5.702h-4.471v-19.31h-4.731v43.674z"
         id="path46" />
      <path
         d="m730.32 475.55c0-5.897 2.657-10.497 8.942-10.497 7.323 0 8.878 5.572 8.878 11.793h-1.167c0-5.314-1.166-10.627-7.711-10.627-5.508 0-7.776 4.406-7.776 9.331v20.023c0 4.925 2.333 9.331 7.841 9.331 6.545 0 7.646-5.249 7.646-10.627h1.167c0 7.193-2.463 11.728-8.813 11.728-6.285 0-9.007-4.535-9.007-10.432zm19.634 3.11c0-8.164-0.972-15.357-10.692-15.357-7.516 0-10.756 5.314-10.756 12.247v20.023c0 6.933 3.304 12.247 10.821 12.247 8.683 0 10.627-5.314 10.627-15.357h-4.795c0 5.378-0.259 10.627-5.832 10.627-4.277 0-6.026-3.5-6.026-7.517v-20.023c0-4.018 1.684-7.581 5.961-7.581 5.119 0 5.897 4.6 5.897 10.691z"
         id="path48" />
      <path
         d="m779.12 505.62h-1.101v-40.111h1.101v19.31h13.737v-19.31h1.232v40.111h-1.232v-19.699h-13.737zm11.988-41.925v19.31h-10.173v-19.31h-4.731v43.674h4.731v-19.634h10.173v19.634h4.73v-43.674z"
         id="path50" />
      <path
         d="m823.37 465.51h13.867v1.102h-12.766v18.273h8.554v1.102h-8.554v18.467h12.766v1.167h-13.867zm11.405 22.291v-4.73h-8.554v-14.645h12.83v-4.73h-17.495v43.674h17.495v-4.665h-12.83v-14.904z"
         id="path52" />
      <path
         d="m867.18 476.78c0-7.128 1.879-11.664 8.424-11.664 5.832 0 8.618 3.305 8.618 9.072 0 9.461-15.487 13.802-15.487 22.615 0 4.406 2.462 8.1 7.193 8.1 6.285 0 6.674-5.573 6.739-10.044h1.102c0 6.739-1.361 11.21-7.841 11.21-5.184 0-8.295-3.952-8.295-8.942 0-5.249 4.601-9.785 8.619-12.701h-0.065c3.045-2.527 6.869-6.674 6.869-10.303 0-4.924-2.463-7.905-7.452-7.905-6.415 0-7.193 6.156-7.193 10.562zm10.368 10.433c4.212-3.759 8.424-7.647 8.424-13.025 0-6.869-3.37-10.886-10.368-10.886-8.1 0-10.174 5.313-10.174 15.292h4.731c0-6.026 0.648-10.562 5.443-10.562 3.758 0 5.637 2.333 5.637 6.091 0 3.435-3.434 6.674-6.156 8.942l0.065-0.064c-4.341 3.11-9.331 8.164-9.331 14.126 0 6.026 3.823 10.692 10.109 10.692 8.748 0 9.655-6.545 9.655-14.71h-4.73c0 5.055-0.324 9.98-4.925 9.98-3.564 0-5.379-2.852-5.379-6.286 0-3.564 3.5-6.545 6.999-9.655z"
         id="path54" />
      <path
         d="m920.51 504.45v-38.944h1.231v38.944h7.258v1.167h-15.682v-1.167zm2.981-40.694h-4.73v38.945h-7.258v4.73h19.245v-4.73h-7.257z"
         id="path56" />
      <path
         d="m955.44 465.51h13.867v1.102h-12.766v18.273h8.554v1.102h-8.554v18.467h12.766v1.167h-13.867zm11.405 22.291v-4.73h-8.554v-14.645h12.83v-4.73h-17.495v43.674h17.495v-4.665h-12.83v-14.904z"
         id="path58" />
      <path
         d="m1005.3 487.8c5.119 0 6.35 2.398 6.35 7.322 0 4.471-0.907 7.517-5.767 7.517h-4.341v-14.839zm0.583 16.589c6.35 0 7.582-3.759 7.582-9.267 0-6.155-1.62-9.136-8.165-9.136h-5.508v18.403zm8.554-26.892c0 3.434-0.843 6.998-4.731 7.906 4.277 1.296 4.925 5.832 4.925 9.719 0 6.156-1.62 10.498-8.489 10.498h-7.581v-40.111h1.231v19.31h6.221c5.443 0 7.192-2.268 7.192-7.516v-11.794h1.232zm-8.295 29.872c8.359 0 10.303-4.989 10.303-12.247 0-3.304-0.583-7.192-2.98-9.59 2.008-1.879 2.721-5.119 2.721-8.035v-13.802h-4.73v13.608c0 4.017-1.361 5.702-5.443 5.702h-4.471v-19.31h-4.731v43.674z"
         id="path60" />
    </g>
    <g
       fill="#1a191a"
       id="g84">
      <path
         d="m133.86 359.73c2.118-0.652 4.412-1.274 6.884-1.865 2.471-0.593 4.983-0.888 7.537-0.888 4.127 0 7.726 0.666 10.795 1.998 3.068 1.332 5.622 3.167 7.659 5.506 2.037 2.338 3.557 5.062 4.563 8.17 1.004 3.109 1.507 6.439 1.507 9.991 0 4.144-0.666 7.918-1.996 11.323-1.332 3.404-3.137 6.29-5.418 8.659-2.282 2.367-4.971 4.203-8.066 5.506-3.097 1.302-6.41 1.954-9.941 1.954h-13.524zm-19.065 59.501h35.93c5.92 0 11.474-0.786 16.662-2.353 5.186-1.57 9.695-3.864 13.525-6.883 3.829-3.02 6.856-6.72 9.084-11.101 2.226-4.382 3.34-9.384 3.34-15.008 0-5.626-1.073-10.524-3.218-14.698-2.146-4.174-4.97-7.637-8.473-10.39-3.504-2.754-7.496-4.796-11.977-6.128s-9.031-1.998-13.647-1.998c-1.955 0-4.02 0.058-6.192 0.177-2.173 0.118-4.265 0.281-6.274 0.489-2.01 0.207-3.87 0.429-5.581 0.666-1.711 0.236-3.083 0.502-4.114 0.799v-57.281h-19.065z"
         id="path64" />
      <path
         d="m259.22 300.49c3.422 0 6.559 0.962 9.41 2.886 2.852 1.923 5.323 4.499 7.415 7.727 2.09 3.226 3.707 7 4.847 11.323 1.141 4.32 1.711 8.88 1.711 13.676 0 6.927-0.544 13.394-1.629 19.404-1.088 6.009-2.852 11.264-5.296 15.763s-5.622 8.037-9.532 10.613c-3.911 2.575-8.718 3.863-14.422 3.863-2.933 0-5.758-0.918-8.473-2.753-2.717-1.836-5.12-4.352-7.211-7.549s-3.761-6.927-5.01-11.189c-1.25-4.263-1.874-8.792-1.874-13.588 0-6.927 0.678-13.44 2.037-19.537 1.357-6.099 3.312-11.412 5.866-15.941 2.552-4.53 5.703-8.112 9.451-10.746 3.748-2.635 7.984-3.952 12.71-3.952m-3.259-7.016c-6.681 0-12.86 1.274-18.535 3.819-5.677 2.545-10.565 6.008-14.666 10.391-4.102 4.38-7.306 9.516-9.614 15.408-2.309 5.89-3.463 12.18-3.463 18.871 0 7.045 1.154 13.661 3.463 19.848 2.308 6.187 5.512 11.575 9.614 16.163 4.101 4.588 8.989 8.215 14.666 10.879 5.675 2.665 11.854 3.997 18.535 3.997s12.832-1.214 18.454-3.642 10.496-5.758 14.625-9.99c4.127-4.234 7.345-9.207 9.655-14.92 2.307-5.714 3.462-11.827 3.462-18.339 0-7.224-1.155-14.017-3.462-20.381-2.31-6.365-5.528-11.931-9.655-16.696-4.129-4.766-9.003-8.525-14.625-11.278s-11.773-4.13-18.454-4.13"
         id="path66" />
      <path
         d="m346.38 295.52h-17.354v138.81l12.384 5.417h4.97z"
         id="path68" />
      <path
         d="m366.47 390.81h19.798l33.813-68.826 27.538 68.826h9.288l-44.648-111.99c-1.902-4.676-4.074-8.732-6.518-12.167-2.444-3.433-5.039-6.261-7.781-8.481-2.743-2.22-5.554-3.877-8.433-4.973-2.879-1.095-5.703-1.643-8.473-1.643-1.902 0-3.707 0.266-5.418 0.799s-3.206 1.288-4.481 2.265c-1.277 0.977-2.281 2.147-3.015 3.508-0.733 1.362-1.1 2.842-1.1 4.44 0 1.303 0.245 2.591 0.734 3.863 0.489 1.274 1.181 2.384 2.077 3.33 0.896 0.948 1.982 1.718 3.259 2.309 1.276 0.593 2.702 0.889 4.278 0.889 1.845 0 3.299-0.223 4.359-0.666 1.059-0.445 2.022-0.947 2.892-1.51 0.868-0.562 1.792-1.066 2.77-1.51s2.308-0.666 3.993-0.666c1.792 0 3.393 0.563 4.806 1.687 1.412 1.126 2.689 2.531 3.83 4.219 1.14 1.687 2.145 3.538 3.014 5.55 0.868 2.013 1.656 3.878 2.363 5.595l5.866 14.298z"
         id="path70" />
      <path
         d="m494.53 321.28c0-2.842 0.57-5.536 1.711-8.081 1.141-2.547 2.742-4.752 4.807-6.617 2.064-1.865 4.534-3.345 7.414-4.44 2.878-1.096 6.029-1.643 9.451-1.643 3.259 0 6.315 0.902 9.166 2.709 2.852 1.805 5.349 4.365 7.496 7.682 2.145 3.315 3.829 7.266 5.051 11.855 1.222 4.588 1.833 9.694 1.833 15.32 0 7.044-0.57 13.188-1.71 18.427-1.141 5.24-2.73 9.605-4.767 13.099-2.037 3.493-4.44 6.097-7.21 7.815-2.771 1.717-5.813 2.576-9.126 2.576-2.553 0-4.984-0.43-7.291-1.288-2.31-0.859-4.482-1.998-6.518-3.419-2.037-1.421-3.925-3.064-5.663-4.929-1.739-1.865-3.287-3.805-4.644-5.817zm-17.354 69.625h17.354v-19.449c1.738 2.427 3.679 4.898 5.825 7.416 2.146 2.515 4.522 4.809 7.13 6.882 2.607 2.072 5.471 3.775 8.595 5.107 3.123 1.332 6.559 1.998 10.307 1.998 5.159 0 9.858-1.185 14.095-3.553 4.236-2.368 7.848-5.581 10.836-9.635 2.987-4.056 5.296-8.807 6.925-14.254 1.63-5.447 2.444-11.249 2.444-17.406 0-7.875-1.005-15.142-3.014-21.802-2.01-6.661-4.862-12.419-8.555-17.273-3.694-4.856-8.176-8.645-13.443-11.367-5.269-2.723-11.191-4.086-17.762-4.086-2.444 0-4.699 0.134-6.762 0.4-2.065 0.266-4.033 0.681-5.907 1.243s-3.681 1.288-5.418 2.176c-1.739 0.888-3.504 1.954-5.296 3.197v-45.203h-17.354z"
         id="path72" />
      <path
         d="m603.68 373.49c5.268 6.452 10.755 11.292 16.458 14.52 5.703 3.226 11.515 4.84 17.435 4.84 3.042 0 5.907-0.755 8.596-2.265 2.689-1.509 5.024-3.567 7.007-6.172 1.982-2.606 3.544-5.669 4.684-9.191 1.141-3.523 1.712-7.268 1.712-11.234v-68.471h-17.355v65.273c0 6.275-1.303 11.042-3.91 14.299-2.608 3.255-5.976 4.884-10.103 4.884-1.847 0-3.803-0.326-5.866-0.977-2.065-0.652-4.155-1.585-6.274-2.798-2.118-1.214-4.224-2.664-6.314-4.351-2.092-1.687-4.115-3.568-6.07-5.639v-70.691h-17.354v138.81l12.384 5.417h4.97z"
         id="path74" />
      <path
         d="m735.15 300.49c3.422 0 6.559 0.962 9.41 2.886 2.852 1.923 5.323 4.499 7.415 7.727 2.09 3.226 3.707 7 4.847 11.323 1.141 4.32 1.711 8.88 1.711 13.676 0 6.927-0.544 13.394-1.629 19.404-1.088 6.009-2.852 11.264-5.296 15.763s-5.622 8.037-9.533 10.613c-3.91 2.575-8.717 3.863-14.421 3.863-2.933 0-5.758-0.918-8.473-2.753-2.717-1.836-5.12-4.352-7.211-7.549s-3.761-6.927-5.01-11.189c-1.25-4.263-1.874-8.792-1.874-13.588 0-6.927 0.678-13.44 2.037-19.537 1.357-6.099 3.312-11.412 5.866-15.941 2.552-4.53 5.703-8.112 9.451-10.746 3.748-2.635 7.984-3.952 12.71-3.952m-3.259-7.016c-6.681 0-12.86 1.274-18.535 3.819-5.677 2.545-10.565 6.008-14.666 10.391-4.102 4.38-7.306 9.516-9.614 15.408-2.309 5.89-3.463 12.18-3.463 18.871 0 7.045 1.154 13.661 3.463 19.848 2.308 6.187 5.512 11.575 9.614 16.163 4.101 4.588 8.989 8.215 14.666 10.879 5.675 2.665 11.854 3.997 18.535 3.997s12.832-1.214 18.454-3.642 10.496-5.758 14.625-9.99c4.127-4.234 7.345-9.207 9.654-14.92 2.308-5.714 3.463-11.827 3.463-18.339 0-7.224-1.155-14.017-3.463-20.381-2.309-6.365-5.527-11.931-9.654-16.696-4.129-4.766-9.003-8.525-14.625-11.278s-11.773-4.13-18.454-4.13"
         id="path76" />
      <path
         d="m804.14 390.9h17.354v-17.406c5.268 6.452 10.755 11.292 16.458 14.52 5.703 3.226 11.514 4.84 17.435 4.84 3.042 0 5.907-0.755 8.596-2.265s5.023-3.567 7.007-6.172c1.982-2.606 3.557-5.67 4.725-9.191 1.168-3.524 1.752-7.269 1.752-11.234v-68.471h-17.436v65.273c0 6.275-1.303 11.042-3.911 14.298-2.607 3.256-5.947 4.885-10.021 4.885-1.847 0-3.802-0.326-5.866-0.977-2.065-0.652-4.155-1.585-6.274-2.798-2.118-1.214-4.236-2.664-6.354-4.351-2.119-1.687-4.156-3.568-6.111-5.639v-70.691h-17.354z"
         id="path78" />
      <path
         d="m907.58 387.44 12.221 5.417h5.052v-97.333h-17.273zm8.473 52.307c1.357 0 2.648-0.252 3.871-0.754 1.222-0.504 2.281-1.186 3.177-2.043 0.896-0.859 1.616-1.865 2.159-3.019 0.542-1.155 0.815-2.384 0.815-3.686 0-1.303-0.273-2.531-0.815-3.685-0.543-1.155-1.263-2.162-2.159-3.02-0.896-0.859-1.955-1.54-3.177-2.042-1.223-0.504-2.514-0.755-3.871-0.755-1.358 0-2.635 0.251-3.829 0.755-1.195 0.502-2.24 1.183-3.137 2.042-0.896 0.858-1.616 1.865-2.159 3.02-0.543 1.154-0.814 2.382-0.814 3.685 0 1.302 0.271 2.531 0.814 3.686 0.543 1.154 1.263 2.16 2.159 3.019 0.897 0.857 1.942 1.539 3.137 2.043 1.194 0.502 2.471 0.754 3.829 0.754"
         id="path80" />
      <path
         d="m1002.4 351.12c-2.499-0.888-5.092-1.896-7.781-3.019-2.689-1.126-5.324-2.385-7.903-3.775-2.58-1.392-5.039-2.901-7.373-4.529-2.336-1.629-4.387-3.361-6.152-5.195-1.765-1.836-3.164-3.79-4.196-5.861-1.032-2.074-1.547-4.234-1.547-6.484 0-2.308 0.393-4.515 1.181-6.616 0.787-2.102 1.833-3.938 3.137-5.506 1.303-1.569 2.811-2.812 4.521-3.73 1.711-0.918 3.49-1.376 5.337-1.376 1.955 0 3.815 0.28 5.581 0.844 1.765 0.562 3.475 1.317 5.133 2.264 1.656 0.947 3.312 2.056 4.97 3.33 1.656 1.273 3.353 2.62 5.092 4.041zm17.436-55.594h-17.436v13.055c-2.065-1.718-4.088-3.463-6.07-5.239-1.983-1.777-4.128-3.405-6.436-4.885-2.31-1.48-4.862-2.679-7.659-3.597-2.798-0.917-6.043-1.376-9.736-1.376-3.422 0-6.518 0.608-9.288 1.821-2.771 1.212-5.133 2.886-7.089 5.017-1.955 2.132-3.45 4.647-4.481 7.549-1.032 2.9-1.548 6.039-1.548 9.413 0 4.086 0.746 7.771 2.241 11.057 1.493 3.286 3.53 6.23 6.111 8.836 2.579 2.605 5.593 4.914 9.043 6.927 3.449 2.012 7.101 3.819 10.959 5.418 3.856 1.598 7.834 3.019 11.936 4.262 4.1 1.244 8.106 2.398 12.017 3.464v5.95c0 4.321-0.395 7.977-1.181 10.967-0.788 2.989-1.915 5.402-3.382 7.238-1.466 1.835-3.246 3.153-5.336 3.952-2.092 0.799-4.441 1.199-7.048 1.199-2.933 0-5.324-0.415-7.169-1.243-1.848-0.83-3.3-1.925-4.359-3.286-1.06-1.363-1.78-2.917-2.159-4.663-0.381-1.746-0.571-3.507-0.571-5.284 0-1.658-0.122-3.256-0.366-4.795-0.245-1.54-0.693-2.886-1.345-4.041-0.652-1.154-1.535-2.087-2.648-2.797-1.113-0.711-2.54-1.066-4.277-1.066-1.359 0-2.594 0.28-3.707 0.844-1.114 0.562-2.078 1.346-2.892 2.353-0.815 1.006-1.44 2.19-1.874 3.552-0.436 1.362-0.652 2.842-0.652 4.441 0 3.137 0.949 6.068 2.851 8.792 1.901 2.722 4.454 5.076 7.659 7.06 3.204 1.983 6.952 3.552 11.243 4.707 4.291 1.154 8.8 1.731 13.525 1.731 5.757 0 10.619-0.607 14.584-1.82 3.964-1.214 7.17-2.917 9.614-5.107 2.445-2.191 4.209-4.855 5.296-7.992 1.086-3.139 1.63-6.603 1.63-10.391z"
         id="path82" />
    </g>
    <g
       fill="#a8aaaa"
       id="g96">
      <path
         d="m772.61 252.41c-80.763 0-161.53 0-242.29 3e-3 -1.295 0-2.592 3e-3 -3.885 0.069-1.287 0.066-1.934 0.79-1.964 2.09-0.031 1.418 0.559 2.274 2.045 2.342 0.862 0.039 1.726 0.056 2.59 0.056 162.6 2e-3 325.21 2e-3 487.82-1e-3 0.864 0 1.729-9e-3 2.59-0.067 1.279-0.087 1.937-0.78 1.973-2.086 0.039-1.436-0.595-2.27-2.054-2.338-1.294-0.061-2.59-0.065-3.885-0.065-80.979-3e-3 -161.96-3e-3 -242.94-3e-3"
         id="path86" />
      <path
         d="m819.91 154.58c65.209 0 130.42 0 195.63-2e-3 1.295 0 2.591-0.01 3.885-0.062 1.466-0.058 2.097-0.889 2.067-2.322-0.027-1.312-0.706-2.017-1.973-2.088-1.4-0.077-2.805-0.077-4.208-0.077-122.97-3e-3 -245.94-3e-3 -368.91-3e-3 -7.774 0-15.547-1e-3 -23.32 3e-3 -0.863 1e-3 -1.728 0.014-2.59 0.059-1.467 0.075-2.096 0.899-2.056 2.333 0.037 1.293 0.664 2.029 1.962 2.089 1.293 0.06 2.589 0.067 3.884 0.067 65.209 3e-3 130.42 3e-3 195.63 3e-3"
         id="path88" />
      <path
         d="m872.4 227.1c-47.623 0-95.246-1e-3 -142.87 3e-3 -1.295 0-2.592 0.011-3.885 0.073-1.246 0.06-2.04 0.682-2.07 2.002-0.032 1.398 0.855 1.858 2.083 1.916 3.663 0.173 7.327 0.494 10.99 0.495 93.41 0.04 186.82 0.046 280.23 0.055 0.863 0 1.729-7e-3 2.589-0.071 1.459-0.107 2.07-0.95 2.01-2.382-0.056-1.304-0.721-1.998-2-2.061-1.185-0.059-2.374-0.068-3.562-0.068-47.838-3e-3 -95.677-3e-3 -143.52-3e-3z"
         id="path90" />
      <path
         d="m886.97 179.94c42.977 0 85.954 1e-3 128.93-5e-3 1.293 0 2.593-9e-3 3.879-0.132 1.188-0.113 1.603-0.96 1.559-2.067-0.04-0.992-0.531-1.675-1.538-1.761-1.288-0.109-2.586-0.131-3.88-0.131-67.489-6e-3 -134.98-6e-3 -202.47-6e-3 -18.681 0-37.362-1e-3 -56.043 6e-3 -1.078 0-2.162 0.012-3.231 0.127-1.19 0.128-1.604 0.96-1.559 2.068 0.041 0.991 0.532 1.675 1.538 1.762 1.288 0.111 2.586 0.134 3.879 0.134 42.977 6e-3 85.954 5e-3 128.93 5e-3"
         id="path92" />
      <path
         d="m906.08 201.22c-36.38 0-72.761-1e-3 -109.14 3e-3 -1.187 0-2.376 4e-3 -3.56 0.072-1.268 0.073-1.957 0.753-1.991 2.068-0.036 1.42 0.553 2.276 2.033 2.353 0.862 0.045 1.726 0.06 2.589 0.06 73.625 2e-3 147.25 2e-3 220.87 0 0.863 0 1.728-0.013 2.589-0.066 1.278-0.078 1.948-0.756 1.991-2.066 0.047-1.431-0.569-2.277-2.034-2.353-1.185-0.062-2.373-0.068-3.56-0.068-36.597-4e-3 -73.193-3e-3 -109.79-3e-3"
         id="path94" />
    </g>
  </g>
</svg>
